Prata-Regular.ufo
<glyph name="exclam" format="2">
  <advance width="262"/>
  <unicode hex="0021"/>
  <outline>
    <contour>
      <point x="119" y="165" type="curve"/>
      <point x="143" y="165" type="line"/>
      <point x="148" y="422"/>
      <point x="186" y="638"/>
      <point x="186" y="752" type="curve" smooth="yes"/>
      <point x="186" y="780"/>
      <point x="167" y="810"/>
      <point x="131" y="810" type="curve" smooth="yes"/>
      <point x="95" y="810"/>
      <point x="76" y="780"/>
      <point x="76" y="752" type="curve" smooth="yes"/>
      <point x="76" y="638"/>
      <point x="115" y="422"/>
    </contour>
    <contour>
      <point x="131" y="-10" type="curve" smooth="yes"/>
      <point x="164" y="-10"/>
      <point x="190" y="17"/>
      <point x="190" y="50" type="curve" smooth="yes"/>
      <point x="190" y="83"/>
      <point x="164" y="108"/>
      <point x="131" y="108" type="curve" smooth="yes"/>
      <point x="98" y="108"/>
      <point x="72" y="83"/>
      <point x="72" y="50" type="curve" smooth="yes"/>
      <point x="72" y="17"/>
      <point x="98" y="-10"/>
    </contour>
  </outline>
</glyph>
<glyph name="quotedbl" format="2">
  <advance width="276"/>
  <unicode hex="0022"/>
  <outline>
    <contour>
      <point x="186" y="565" type="curve"/>
      <point x="202" y="565" type="line"/>
      <point x="212" y="685"/>
      <point x="231" y="727"/>
      <point x="231" y="770" type="curve" smooth="yes"/>
      <point x="231" y="790"/>
      <point x="219" y="810"/>
      <point x="194" y="810" type="curve" smooth="yes"/>
      <point x="169" y="810"/>
      <point x="156" y="790"/>
      <point x="156" y="770" type="curve" smooth="yes"/>
      <point x="156" y="727"/>
      <point x="176" y="685"/>
    </contour>
    <contour>
      <point x="74" y="565" type="curve"/>
      <point x="91" y="565" type="line"/>
      <point x="101" y="685"/>
      <point x="120" y="727"/>
      <point x="120" y="770" type="curve" smooth="yes"/>
      <point x="120" y="790"/>
      <point x="107" y="810"/>
      <point x="83" y="810" type="curve" smooth="yes"/>
      <point x="58" y="810"/>
      <point x="45" y="790"/>
      <point x="45" y="770" type="curve" smooth="yes"/>
      <point x="45" y="727"/>
      <point x="64" y="685"/>
    </contour>
  </outline>
</glyph>
<glyph name="numbersign" format="2">
  <advance width="585"/>
  <unicode hex="0023"/>
  <outline>
    <contour>
      <point x="102" y="0" type="line"/>
      <point x="147" y="0" type="line"/>
      <point x="186" y="210" type="line"/>
      <point x="341" y="210" type="line"/>
      <point x="302" y="0" type="line"/>
      <point x="347" y="0" type="line"/>
      <point x="386" y="210" type="line"/>
      <point x="510" y="210" type="line"/>
      <point x="510" y="255" type="line"/>
      <point x="395" y="255" type="line"/>
      <point x="419" y="383" type="line"/>
      <point x="543" y="383" type="line"/>
      <point x="543" y="428" type="line"/>
      <point x="427" y="428" type="line"/>
      <point x="482" y="715" type="line"/>
      <point x="436" y="715" type="line"/>
      <point x="382" y="428" type="line"/>
      <point x="227" y="428" type="line"/>
      <point x="282" y="715" type="line"/>
      <point x="236" y="715" type="line"/>
      <point x="182" y="428" type="line"/>
      <point x="71" y="428" type="line"/>
      <point x="71" y="383" type="line"/>
      <point x="174" y="383" type="line"/>
      <point x="150" y="255" type="line"/>
      <point x="38" y="255" type="line"/>
      <point x="38" y="210" type="line"/>
      <point x="141" y="210" type="line"/>
    </contour>
    <contour>
      <point x="195" y="255" type="line"/>
      <point x="219" y="383" type="line"/>
      <point x="374" y="383" type="line"/>
      <point x="350" y="255" type="line"/>
    </contour>
  </outline>
</glyph>
<glyph name="ampersand" format="2">
  <advance width="821"/>
  <unicode hex="0026"/>
  <outline>
    <contour>
      <point x="375" y="-20" type="curve" smooth="yes"/>
      <point x="506" y="-20"/>
      <point x="590" y="58"/>
      <point x="590" y="197" type="curve" smooth="yes"/>
      <point x="590" y="221"/>
      <point x="587" y="245"/>
      <point x="582" y="270" type="curve"/>
      <point x="603" y="267"/>
      <point x="626" y="266"/>
      <point x="653" y="266" type="curve" smooth="yes"/>
      <point x="751" y="266"/>
      <point x="803" y="317"/>
      <point x="803" y="423" type="curve" smooth="yes"/>
      <point x="803" y="485"/>
      <point x="768" y="528"/>
      <point x="718" y="528" type="curve" smooth="yes"/>
      <point x="683" y="528"/>
      <point x="657" y="500"/>
      <point x="657" y="468" type="curve" smooth="yes"/>
      <point x="657" y="443"/>
      <point x="671" y="421"/>
      <point x="706" y="413" type="curve"/>
      <point x="715" y="432"/>
      <point x="734" y="441"/>
      <point x="751" y="441" type="curve" smooth="yes"/>
      <point x="768" y="441"/>
      <point x="782" y="432"/>
      <point x="782" y="412" type="curve" smooth="yes"/>
      <point x="782" y="376"/>
      <point x="738" y="357"/>
      <point x="678" y="357" type="curve" smooth="yes"/>
      <point x="612" y="357"/>
      <point x="569" y="376"/>
      <point x="482" y="376" type="curve" smooth="yes"/>
      <point x="380" y="376"/>
      <point x="322" y="309"/>
      <point x="322" y="232" type="curve" smooth="yes"/>
      <point x="322" y="169"/>
      <point x="359" y="118"/>
      <point x="410" y="118" type="curve" smooth="yes"/>
      <point x="445" y="118"/>
      <point x="471" y="146"/>
      <point x="471" y="178" type="curve" smooth="yes"/>
      <point x="471" y="203"/>
      <point x="456" y="225"/>
      <point x="422" y="233" type="curve"/>
      <point x="413" y="215"/>
      <point x="393" y="206"/>
      <point x="377" y="206" type="curve" smooth="yes"/>
      <point x="360" y="206"/>
      <point x="345" y="215"/>
      <point x="345" y="234" type="curve" smooth="yes"/>
      <point x="345" y="275"/>
      <point x="393" y="289"/>
      <point x="445" y="289" type="curve" smooth="yes"/>
      <point x="480" y="289"/>
      <point x="513" y="280"/>
      <point x="555" y="274" type="curve"/>
      <point x="562" y="247"/>
      <point x="566" y="223"/>
      <point x="566" y="195" type="curve" smooth="yes"/>
      <point x="566" y="67"/>
      <point x="486" y="3"/>
      <point x="383" y="3" type="curve" smooth="yes"/>
      <point x="276" y="3"/>
      <point x="191" y="80"/>
      <point x="191" y="218" type="curve" smooth="yes"/>
      <point x="191" y="351"/>
      <point x="271" y="425"/>
      <point x="428" y="435" type="curve"/>
      <point x="428" y="457" type="line"/>
      <point x="288" y="465"/>
      <point x="206" y="518"/>
      <point x="206" y="650" type="curve" smooth="yes"/>
      <point x="206" y="739"/>
      <point x="264" y="797"/>
      <point x="355" y="797" type="curve" smooth="yes"/>
      <point x="419" y="797"/>
      <point x="456" y="769"/>
      <point x="456" y="729" type="curve" smooth="yes"/>
      <point x="456" y="699"/>
      <point x="443" y="679"/>
      <point x="414" y="666" type="curve"/>
      <point x="414" y="625"/>
      <point x="443" y="607"/>
      <point x="473" y="607" type="curve" smooth="yes"/>
      <point x="503" y="607"/>
      <point x="534" y="631"/>
      <point x="534" y="677" type="curve" smooth="yes"/>
      <point x="534" y="766"/>
      <point x="448" y="820"/>
      <point x="344" y="820" type="curve" smooth="yes"/>
      <point x="184" y="820"/>
      <point x="88" y="757"/>
      <point x="88" y="645" type="curve" smooth="yes"/>
      <point x="88" y="511"/>
      <point x="178" y="467"/>
      <point x="331" y="447" type="curve"/>
      <point x="331" y="444" type="line"/>
      <point x="174" y="436"/>
      <point x="54" y="364"/>
      <point x="54" y="218" type="curve" smooth="yes"/>
      <point x="54" y="80"/>
      <point x="150" y="-20"/>
    </contour>
  </outline>
</glyph>
<glyph name="parenleft" format="2">
  <advance width="346"/>
  <unicode hex="0028"/>
  <outline>
    <contour>
      <point x="346" y="-195" type="curve"/>
      <point x="352" y="-171" type="line"/>
      <point x="271" y="-131"/>
      <point x="159" y="21"/>
      <point x="159" y="356" type="curve" smooth="yes"/>
      <point x="159" y="693"/>
      <point x="241" y="844"/>
      <point x="352" y="884" type="curve"/>
      <point x="345" y="907" type="line"/>
      <point x="157" y="852"/>
      <point x="39" y="644"/>
      <point x="39" y="356" type="curve" smooth="yes"/>
      <point x="39" y="70"/>
      <point x="157" y="-140"/>
    </contour>
  </outline>
</glyph>
<glyph name="parenright" format="2">
  <advance width="346"/>
  <unicode hex="0029"/>
  <outline>
    <contour>
      <point x="0" y="-195" type="line"/>
      <point x="189" y="-140"/>
      <point x="307" y="70"/>
      <point x="307" y="356" type="curve" smooth="yes"/>
      <point x="307" y="644"/>
      <point x="189" y="852"/>
      <point x="1" y="907" type="curve"/>
      <point x="-6" y="884" type="line"/>
      <point x="105" y="844"/>
      <point x="187" y="693"/>
      <point x="187" y="356" type="curve" smooth="yes"/>
      <point x="187" y="21"/>
      <point x="75" y="-131"/>
      <point x="-6" y="-171" type="curve"/>
    </contour>
  </outline>
</glyph>
<glyph name="period" format="2">
  <advance width="219"/>
  <unicode hex="002E"/>
  <outline>
    <contour>
      <point x="110" y="-10" type="curve" smooth="yes"/>
      <point x="143" y="-10"/>
      <point x="169" y="17"/>
      <point x="169" y="50" type="curve" smooth="yes"/>
      <point x="169" y="83"/>
      <point x="143" y="108"/>
      <point x="110" y="108" type="curve" smooth="yes"/>
      <point x="77" y="108"/>
      <point x="50" y="83"/>
      <point x="50" y="50" type="curve" smooth="yes"/>
      <point x="50" y="17"/>
      <point x="77" y="-10"/>
    </contour>
  </outline>
</glyph>
<glyph name="slash" format="2">
  <advance width="440"/>
  <unicode hex="002F"/>
  <outline>
    <contour>
      <point x="34" y="0" type="line"/>
      <point x="86" y="0" type="line"/>
      <point x="396" y="700" type="line"/>
      <point x="345" y="700" type="line"/>
    </contour>
  </outline>
</glyph>
<glyph name="zero" format="2">
  <advance width="696"/>
  <unicode hex="0030"/>
  <outline>
    <contour>
      <point x="348" y="-20" type="curve" smooth="yes"/>
      <point x="520" y="-20"/>
      <point x="637" y="120"/>
      <point x="637" y="400" type="curve" smooth="yes"/>
      <point x="637" y="680"/>
      <point x="520" y="820"/>
      <point x="348" y="820" type="curve" smooth="yes"/>
      <point x="176" y="820"/>
      <point x="59" y="680"/>
      <point x="59" y="400" type="curve" smooth="yes"/>
      <point x="59" y="120"/>
      <point x="176" y="-20"/>
    </contour>
    <contour>
      <point x="348" y="3" type="curve" smooth="yes"/>
      <point x="254" y="3"/>
      <point x="187" y="89"/>
      <point x="187" y="304" type="curve" smooth="yes"/>
      <point x="187" y="497" type="line" smooth="yes"/>
      <point x="187" y="711"/>
      <point x="254" y="797"/>
      <point x="348" y="797" type="curve" smooth="yes"/>
      <point x="443" y="797"/>
      <point x="509" y="711"/>
      <point x="509" y="497" type="curve" smooth="yes"/>
      <point x="509" y="304" type="line" smooth="yes"/>
      <point x="509" y="89"/>
      <point x="443" y="3"/>
    </contour>
  </outline>
</glyph>
<glyph name="one" format="2">
  <advance width="345"/>
  <unicode hex="0031"/>
  <outline>
    <contour>
      <point x="55" y="0" type="line"/>
      <point x="295" y="0" type="line"/>
      <point x="295" y="20" type="line"/>
      <point x="225" y="30" type="line"/>
      <point x="225" y="800" type="line"/>
      <point x="55" y="800" type="line"/>
      <point x="55" y="780" type="line"/>
      <point x="125" y="770" type="line"/>
      <point x="125" y="30" type="line"/>
      <point x="55" y="20" type="line"/>
    </contour>
  </outline>
</glyph>
<glyph name="two" format="2">
  <advance width="613"/>
  <unicode hex="0032"/>
  <outline>
    <contour>
      <point x="38" y="0" type="line"/>
      <point x="541" y="0" type="line"/>
      <point x="541" y="253" type="line"/>
      <point x="515" y="253" type="line"/>
      <point x="474" y="105" type="line"/>
      <point x="101" y="105" type="line"/>
      <point x="340" y="316" type="line"/>
      <point x="428" y="395"/>
      <point x="536" y="474"/>
      <point x="536" y="611" type="curve" smooth="yes"/>
      <point x="536" y="727"/>
      <point x="468" y="820"/>
      <point x="296" y="820" type="curve" smooth="yes"/>
      <point x="171" y="820"/>
      <point x="57" y="745"/>
      <point x="57" y="634" type="curve" smooth="yes"/>
      <point x="57" y="576"/>
      <point x="96" y="546"/>
      <point x="135" y="546" type="curve" smooth="yes"/>
      <point x="172" y="546"/>
      <point x="209" y="569"/>
      <point x="209" y="620" type="curve"/>
      <point x="172" y="638"/>
      <point x="156" y="666"/>
      <point x="156" y="699" type="curve" smooth="yes"/>
      <point x="156" y="760"/>
      <point x="217" y="797"/>
      <point x="280" y="797" type="curve" smooth="yes"/>
      <point x="359" y="797"/>
      <point x="419" y="752"/>
      <point x="419" y="628" type="curve" smooth="yes"/>
      <point x="419" y="506"/>
      <point x="352" y="399"/>
      <point x="249" y="292" type="curve"/>
      <point x="38" y="77" type="line"/>
    </contour>
  </outline>
</glyph>
<glyph name="four" format="2">
  <advance width="585"/>
  <unicode hex="0034"/>
  <outline>
    <contour>
      <point x="245" y="0" type="line"/>
      <point x="539" y="0" type="line"/>
      <point x="539" y="21" type="line"/>
      <point x="447" y="36" type="line"/>
      <point x="447" y="192" type="line"/>
      <point x="539" y="192" type="line"/>
      <point x="539" y="239" type="line"/>
      <point x="447" y="239" type="line"/>
      <point x="447" y="800" type="line"/>
      <point x="424" y="800" type="line"/>
      <point x="0" y="213" type="line"/>
      <point x="0" y="192" type="line"/>
      <point x="337" y="192" type="line"/>
      <point x="337" y="36" type="line"/>
      <point x="245" y="21" type="line"/>
    </contour>
    <contour>
      <point x="49" y="239" type="line"/>
      <point x="337" y="638" type="line"/>
      <point x="337" y="239" type="line"/>
    </contour>
  </outline>
</glyph>
<glyph name="seven" format="2">
  <advance width="500"/>
  <unicode hex="0037"/>
  <outline>
    <contour>
      <point x="141" y="0" type="curve"/>
      <point x="278" y="0" type="line"/>
      <point x="303" y="280"/>
      <point x="446" y="490"/>
      <point x="481" y="800" type="curve"/>
      <point x="42" y="800" type="line"/>
      <point x="42" y="577" type="line"/>
      <point x="68" y="577" type="line"/>
      <point x="95" y="696" type="line"/>
      <point x="430" y="696" type="line"/>
      <point x="353" y="427"/>
      <point x="169" y="278"/>
    </contour>
  </outline>
</glyph>
<glyph name="eight" format="2">
  <advance width="648"/>
  <unicode hex="0038"/>
  <outline>
    <contour>
      <point x="327" y="-20" type="curve" smooth="yes"/>
      <point x="459" y="-20"/>
      <point x="598" y="56"/>
      <point x="598" y="214" type="curve" smooth="yes"/>
      <point x="598" y="326"/>
      <point x="518" y="389"/>
      <point x="434" y="442" type="curve" smooth="yes"/>
      <point x="408" y="458" type="line"/>
      <point x="480" y="500"/>
      <point x="553" y="549"/>
      <point x="553" y="652" type="curve" smooth="yes"/>
      <point x="553" y="765"/>
      <point x="437" y="820"/>
      <point x="329" y="820" type="curve" smooth="yes"/>
      <point x="200" y="820"/>
      <point x="85" y="748"/>
      <point x="85" y="629" type="curve" smooth="yes"/>
      <point x="85" y="564"/>
      <point x="127" y="507"/>
      <point x="194" y="461" type="curve"/>
      <point x="240" y="431" type="line"/>
      <point x="151" y="386"/>
      <point x="54" y="321"/>
      <point x="54" y="188" type="curve" smooth="yes"/>
      <point x="54" y="54"/>
      <point x="157" y="-20"/>
    </contour>
    <contour>
      <point x="322" y="3" type="curve" smooth="yes"/>
      <point x="201" y="3"/>
      <point x="156" y="90"/>
      <point x="156" y="182" type="curve" smooth="yes"/>
      <point x="156" y="267"/>
      <point x="191" y="355"/>
      <point x="269" y="412" type="curve"/>
      <point x="378" y="342" type="line"/>
      <point x="463" y="283"/>
      <point x="503" y="225"/>
      <point x="503" y="155" type="curve" smooth="yes"/>
      <point x="503" y="75"/>
      <point x="434" y="3"/>
    </contour>
    <contour>
      <point x="380" y="475" type="curve"/>
      <point x="274" y="542" type="line"/>
      <point x="213" y="583"/>
      <point x="174" y="624"/>
      <point x="174" y="683" type="curve" smooth="yes"/>
      <point x="174" y="751"/>
      <point x="244" y="797"/>
      <point x="317" y="797" type="curve" smooth="yes"/>
      <point x="404" y="797"/>
      <point x="462" y="736"/>
      <point x="462" y="649" type="curve" smooth="yes"/>
      <point x="462" y="596"/>
      <point x="452" y="527"/>
    </contour>
  </outline>
</glyph>
<glyph name="colon" format="2">
  <advance width="249"/>
  <unicode hex="003A"/>
  <outline>
    <contour>
      <point x="125" y="341" type="curve" smooth="yes"/>
      <point x="158" y="341"/>
      <point x="184" y="368"/>
      <point x="184" y="401" type="curve" smooth="yes"/>
      <point x="184" y="434"/>
      <point x="158" y="459"/>
      <point x="125" y="459" type="curve" smooth="yes"/>
      <point x="92" y="459"/>
      <point x="65" y="434"/>
      <point x="65" y="401" type="curve" smooth="yes"/>
      <point x="65" y="368"/>
      <point x="92" y="341"/>
    </contour>
    <contour>
      <point x="125" y="-10" type="curve" smooth="yes"/>
      <point x="158" y="-10"/>
      <point x="184" y="17"/>
      <point x="184" y="50" type="curve" smooth="yes"/>
      <point x="184" y="83"/>
      <point x="158" y="108"/>
      <point x="125" y="108" type="curve" smooth="yes"/>
      <point x="92" y="108"/>
      <point x="65" y="83"/>
      <point x="65" y="50" type="curve" smooth="yes"/>
      <point x="65" y="17"/>
      <point x="92" y="-10"/>
    </contour>
  </outline>
</glyph>
<glyph name="less" format="2">
  <advance width="491"/>
  <unicode hex="003C"/>
  <outline>
    <contour>
      <point x="422" y="139" type="line"/>
      <point x="422" y="177" type="line"/>
      <point x="87" y="357" type="line"/>
      <point x="422" y="539" type="line"/>
      <point x="422" y="577" type="line"/>
      <point x="33" y="367" type="line"/>
      <point x="33" y="347" type="line"/>
    </contour>
  </outline>
</glyph>
<glyph name="equal" format="2">
  <advance width="611"/>
  <unicode hex="003D"/>
  <outline>
    <contour>
      <point x="76" y="421" type="line"/>
      <point x="535" y="421" type="line"/>
      <point x="535" y="459" type="line"/>
      <point x="76" y="459" type="line"/>
    </contour>
    <contour>
      <point x="76" y="255" type="line"/>
      <point x="535" y="255" type="line"/>
      <point x="535" y="293" type="line"/>
      <point x="76" y="293" type="line"/>
    </contour>
  </outline>
</glyph>
<glyph name="greater" format="2">
  <advance width="491"/>
  <unicode hex="003E"/>
  <outline>
    <contour>
      <point x="69" y="139" type="line"/>
      <point x="458" y="347" type="line"/>
      <point x="458" y="367" type="line"/>
      <point x="69" y="577" type="line"/>
      <point x="69" y="539" type="line"/>
      <point x="404" y="357" type="line"/>
      <point x="69" y="177" type="line"/>
    </contour>
  </outline>
</glyph>
<glyph name="B" format="2">
  <advance width="745"/>
  <unicode hex="0042"/>
  <outline>
    <contour>
      <point x="40" y="0" type="line"/>
      <point x="393" y="0" type="line" smooth="yes"/>
      <point x="565" y="0"/>
      <point x="691" y="62"/>
      <point x="691" y="216" type="curve" smooth="yes"/>
      <point x="691" y="342"/>
      <point x="599" y="405"/>
      <point x="457" y="424" type="curve"/>
      <point x="457" y="429" type="line"/>
      <point x="581" y="456"/>
      <point x="639" y="518"/>
      <point x="639" y="613" type="curve" smooth="yes"/>
      <point x="639" y="742"/>
      <point x="561" y="800"/>
      <point x="345" y="800" type="curve" smooth="yes"/>
      <point x="40" y="800" type="line"/>
      <point x="40" y="778" type="line"/>
      <point x="132" y="764" type="line"/>
      <point x="132" y="36" type="line"/>
      <point x="40" y="21" type="line"/>
    </contour>
    <contour>
      <point x="242" y="24" type="line"/>
      <point x="242" y="407" type="line"/>
      <point x="393" y="407" type="line" smooth="yes"/>
      <point x="505" y="407"/>
      <point x="572" y="350"/>
      <point x="572" y="226" type="curve" smooth="yes"/>
      <point x="572" y="215" type="line" smooth="yes"/>
      <point x="572" y="91"/>
      <point x="505" y="24"/>
      <point x="393" y="24" type="curve" smooth="yes"/>
    </contour>
    <contour>
      <point x="242" y="432" type="line"/>
      <point x="242" y="775" type="line"/>
      <point x="345" y="775" type="line" smooth="yes"/>
      <point x="456" y="775"/>
      <point x="519" y="726"/>
      <point x="519" y="611" type="curve" smooth="yes"/>
      <point x="519" y="605" type="line" smooth="yes"/>
      <point x="519" y="494"/>
      <point x="459" y="432"/>
      <point x="353" y="432" type="curve" smooth="yes"/>
    </contour>
  </outline>
</glyph>
<glyph name="C" format="2">
  <advance width="745"/>
  <unicode hex="0043"/>
  <outline>
    <contour>
      <point x="416" y="-20" type="curve" smooth="yes"/>
      <point x="476" y="-20"/>
      <point x="541" y="3"/>
      <point x="589" y="41" type="curve"/>
      <point x="661" y="-10" type="line"/>
      <point x="682" y="-10" type="line"/>
      <point x="682" y="247" type="line"/>
      <point x="661" y="247" type="line"/>
      <point x="603" y="86" type="line"/>
      <point x="558" y="36"/>
      <point x="484" y="3"/>
      <point x="416" y="3" type="curve" smooth="yes"/>
      <point x="277" y="3"/>
      <point x="184" y="115"/>
      <point x="184" y="309" type="curve" smooth="yes"/>
      <point x="184" y="492" type="line" smooth="yes"/>
      <point x="184" y="686"/>
      <point x="282" y="797"/>
      <point x="421" y="797" type="curve" smooth="yes"/>
      <point x="482" y="797"/>
      <point x="548" y="769"/>
      <point x="594" y="727" type="curve"/>
      <point x="656" y="572" type="line"/>
      <point x="677" y="572" type="line"/>
      <point x="677" y="820" type="line"/>
      <point x="656" y="820" type="line"/>
      <point x="589" y="763" type="line"/>
      <point x="541" y="798"/>
      <point x="479" y="820"/>
      <point x="421" y="820" type="curve" smooth="yes"/>
      <point x="200" y="820"/>
      <point x="54" y="650"/>
      <point x="54" y="400" type="curve" smooth="yes"/>
      <point x="54" y="151"/>
      <point x="195" y="-20"/>
    </contour>
  </outline>
</glyph>
<glyph name="G" format="2">
  <advance width="813"/>
  <unicode hex="0047"/>
  <outline>
    <contour>
      <point x="416" y="-20" type="curve" smooth="yes"/>
      <point x="627" y="-20"/>
      <point x="710" y="90"/>
      <point x="710" y="198" type="curve" smooth="yes"/>
      <point x="710" y="291" type="line"/>
      <point x="803" y="305" type="line"/>
      <point x="803" y="327" type="line"/>
      <point x="504" y="327" type="line"/>
      <point x="504" y="305" type="line"/>
      <point x="597" y="291" type="line"/>
      <point x="597" y="198" type="line" smooth="yes"/>
      <point x="597" y="81"/>
      <point x="533" y="3"/>
      <point x="416" y="3" type="curve" smooth="yes"/>
      <point x="277" y="3"/>
      <point x="182" y="115"/>
      <point x="182" y="309" type="curve" smooth="yes"/>
      <point x="182" y="492" type="line" smooth="yes"/>
      <point x="182" y="686"/>
      <point x="287" y="797"/>
      <point x="426" y="797" type="curve" smooth="yes"/>
      <point x="498" y="797"/>
      <point x="552" y="773"/>
      <point x="595" y="737" type="curve"/>
      <point x="661" y="572" type="line"/>
      <point x="682" y="572" type="line"/>
      <point x="682" y="820" type="line"/>
      <point x="661" y="820" type="line"/>
      <point x="600" y="768" type="line"/>
      <point x="556" y="800"/>
      <point x="500" y="820"/>
      <point x="426" y="820" type="curve" smooth="yes"/>
      <point x="205" y="820"/>
      <point x="54" y="650"/>
      <point x="54" y="400" type="curve" smooth="yes"/>
      <point x="54" y="151"/>
      <point x="195" y="-20"/>
    </contour>
  </outline>
</glyph>
<glyph name="L" format="2">
  <advance width="675"/>
  <unicode hex="004C"/>
  <outline>
    <contour>
      <point x="40" y="0" type="line"/>
      <point x="650" y="0" type="line"/>
      <point x="650" y="244" type="line"/>
      <point x="623" y="244" type="line"/>
      <point x="541" y="24" type="line"/>
      <point x="242" y="24" type="line"/>
      <point x="242" y="764" type="line"/>
      <point x="334" y="778" type="line"/>
      <point x="334" y="800" type="line"/>
      <point x="40" y="800" type="line"/>
      <point x="40" y="778" type="line"/>
      <point x="132" y="764" type="line"/>
      <point x="132" y="36" type="line"/>
      <point x="40" y="21" type="line"/>
    </contour>
  </outline>
</glyph>
<glyph name="M" format="2">
  <advance width="1012"/>
  <unicode hex="004D"/>
  <outline>
    <contour>
      <point x="456" y="-10" type="line"/>
      <point x="474" y="-10" type="line"/>
      <point x="770" y="734" type="line"/>
      <point x="770" y="36" type="line"/>
      <point x="678" y="21" type="line"/>
      <point x="678" y="0" type="line"/>
      <point x="972" y="0" type="line"/>
      <point x="972" y="21" type="line"/>
      <point x="880" y="36" type="line"/>
      <point x="880" y="764" type="line"/>
      <point x="972" y="778" type="line"/>
      <point x="972" y="800" type="line"/>
      <point x="770" y="800" type="line"/>
      <point x="514" y="158" type="line"/>
      <point x="263" y="800" type="line"/>
      <point x="42" y="800" type="line"/>
      <point x="42" y="778" type="line"/>
      <point x="134" y="764" type="line"/>
      <point x="134" y="61" type="line"/>
      <point x="40" y="21" type="line"/>
      <point x="40" y="0" type="line"/>
      <point x="254" y="0" type="line"/>
      <point x="254" y="21" type="line"/>
      <point x="158" y="61" type="line"/>
      <point x="158" y="764" type="line"/>
    </contour>
  </outline>
</glyph>
<glyph name="O" format="2">
  <advance width="862"/>
  <unicode hex="004F"/>
  <anchor x="431" y="0" name="bottom"/>
  <anchor x="431" y="400" name="center"/>
  <anchor x="776" y="10" name="ogonek"/>
  <anchor x="431" y="800" name="top"/>
  <anchor x="20" y="800" name="topleft"/>
  <anchor x="684" y="783" name="topright"/>
  <outline>
    <contour>
      <point x="431" y="-20" type="curve" smooth="yes"/>
      <point x="651" y="-20"/>
      <point x="808" y="151"/>
      <point x="808" y="400" type="curve" smooth="yes"/>
      <point x="808" y="650"/>
      <point x="651" y="820"/>
      <point x="431" y="820" type="curve" smooth="yes"/>
      <point x="210" y="820"/>
      <point x="54" y="650"/>
      <point x="54" y="400" type="curve" smooth="yes"/>
      <point x="54" y="151"/>
      <point x="210" y="-20"/>
    </contour>
    <contour>
      <point x="431" y="3" type="curve" smooth="yes"/>
      <point x="287" y="3"/>
      <point x="178" y="119"/>
      <point x="178" y="323" type="curve" smooth="yes"/>
      <point x="178" y="477" type="line" smooth="yes"/>
      <point x="178" y="681"/>
      <point x="287" y="797"/>
      <point x="431" y="797" type="curve" smooth="yes"/>
      <point x="574" y="797"/>
      <point x="684" y="681"/>
      <point x="684" y="477" type="curve" smooth="yes"/>
      <point x="684" y="323" type="line" smooth="yes"/>
      <point x="684" y="119"/>
      <point x="574" y="3"/>
    </contour>
  </outline>
</glyph>
<glyph name="P" format="2">
  <advance width="684"/>
  <unicode hex="0050"/>
  <outline>
    <contour>
      <point x="40" y="0" type="line"/>
      <point x="334" y="0" type="line"/>
      <point x="334" y="21" type="line"/>
      <point x="242" y="36" type="line"/>
      <point x="242" y="310" type="line"/>
      <point x="354" y="310" type="line" smooth="yes"/>
      <point x="555" y="310"/>
      <point x="646" y="399"/>
      <point x="646" y="555" type="curve" smooth="yes"/>
      <point x="646" y="710"/>
      <point x="555" y="800"/>
      <point x="354" y="800" type="curve" smooth="yes"/>
      <point x="242" y="800" type="line"/>
      <point x="40" y="800" type="line"/>
      <point x="40" y="778" type="line"/>
      <point x="132" y="764" type="line"/>
      <point x="132" y="36" type="line"/>
      <point x="40" y="21" type="line"/>
    </contour>
    <contour>
      <point x="242" y="334" type="line"/>
      <point x="242" y="775" type="line"/>
      <point x="340" y="775" type="line" smooth="yes"/>
      <point x="468" y="775"/>
      <point x="525" y="704"/>
      <point x="525" y="575" type="curve" smooth="yes"/>
      <point x="525" y="535" type="line" smooth="yes"/>
      <point x="525" y="406"/>
      <point x="468" y="334"/>
      <point x="340" y="334" type="curve" smooth="yes"/>
    </contour>
  </outline>
</glyph>
<glyph name="Q" format="2">
  <advance width="862"/>
  <unicode hex="0051"/>
  <outline>
    <contour>
      <point x="583" y="-231" type="curve" smooth="yes"/>
      <point x="616" y="-231" type="line"/>
      <point x="616" y="-208" type="line"/>
      <point x="536" y="-208"/>
      <point x="494" y="-167"/>
      <point x="494" y="-82" type="curve" smooth="yes"/>
      <point x="494" y="-15" type="line"/>
      <point x="680" y="14"/>
      <point x="808" y="175"/>
      <point x="808" y="400" type="curve" smooth="yes"/>
      <point x="808" y="650"/>
      <point x="651" y="820"/>
      <point x="431" y="820" type="curve" smooth="yes"/>
      <point x="210" y="820"/>
      <point x="54" y="650"/>
      <point x="54" y="400" type="curve" smooth="yes"/>
      <point x="54" y="174"/>
      <point x="182" y="12"/>
      <point x="371" y="-15" type="curve"/>
      <point x="371" y="-58" type="line" smooth="yes"/>
      <point x="371" y="-174"/>
      <point x="443" y="-231"/>
    </contour>
    <contour>
      <point x="431" y="3" type="curve" smooth="yes"/>
      <point x="287" y="3"/>
      <point x="180" y="119"/>
      <point x="180" y="323" type="curve" smooth="yes"/>
      <point x="180" y="477" type="line" smooth="yes"/>
      <point x="180" y="681"/>
      <point x="287" y="797"/>
      <point x="431" y="797" type="curve" smooth="yes"/>
      <point x="574" y="797"/>
      <point x="682" y="681"/>
      <point x="682" y="477" type="curve" smooth="yes"/>
      <point x="682" y="323" type="line" smooth="yes"/>
      <point x="682" y="119"/>
      <point x="574" y="3"/>
    </contour>
  </outline>
</glyph>
<glyph name="S" format="2">
  <advance width="666"/>
  <unicode hex="0053"/>
  <outline>
    <contour>
      <point x="357" y="-20" type="curve" smooth="yes"/>
      <point x="508" y="-20"/>
      <point x="609" y="67"/>
      <point x="609" y="217" type="curve" smooth="yes"/>
      <point x="609" y="370"/>
      <point x="546" y="427"/>
      <point x="437" y="455" type="curve" smooth="yes"/>
      <point x="258" y="502" type="line" smooth="yes"/>
      <point x="172" y="524"/>
      <point x="118" y="561"/>
      <point x="118" y="636" type="curve" smooth="yes"/>
      <point x="118" y="731"/>
      <point x="187" y="798"/>
      <point x="305" y="798" type="curve" smooth="yes"/>
      <point x="365" y="798"/>
      <point x="422" y="784"/>
      <point x="468" y="762" type="curve"/>
      <point x="540" y="616" type="line"/>
      <point x="562" y="616" type="line"/>
      <point x="562" y="820" type="line"/>
      <point x="540" y="820" type="line"/>
      <point x="467" y="789" type="line"/>
      <point x="416" y="811"/>
      <point x="361" y="820"/>
      <point x="304" y="820" type="curve" smooth="yes"/>
      <point x="155" y="820"/>
      <point x="70" y="723"/>
      <point x="70" y="585" type="curve" smooth="yes"/>
      <point x="70" y="487"/>
      <point x="126" y="407"/>
      <point x="245" y="375" type="curve"/>
      <point x="411" y="332" type="line" smooth="yes"/>
      <point x="520" y="304"/>
      <point x="568" y="262"/>
      <point x="568" y="179" type="curve" smooth="yes"/>
      <point x="568" y="63"/>
      <point x="478" y="2"/>
      <point x="365" y="2" type="curve" smooth="yes"/>
      <point x="294" y="2"/>
      <point x="231" y="21"/>
      <point x="175" y="61" type="curve"/>
      <point x="89" y="247" type="line"/>
      <point x="67" y="247" type="line"/>
      <point x="67" y="-10" type="line"/>
      <point x="89" y="-10" type="line"/>
      <point x="174" y="33" type="line"/>
      <point x="230" y="0"/>
      <point x="294" y="-20"/>
    </contour>
  </outline>
</glyph>
<glyph name="T" format="2">
  <advance width="700"/>
  <unicode hex="0054"/>
  <outline>
    <contour>
      <point x="203" y="0" type="line"/>
      <point x="497" y="0" type="line"/>
      <point x="497" y="21" type="line"/>
      <point x="405" y="36" type="line"/>
      <point x="405" y="775" type="line"/>
      <point x="571" y="775" type="line"/>
      <point x="646" y="577" type="line"/>
      <point x="676" y="577" type="line"/>
      <point x="676" y="800" type="line"/>
      <point x="25" y="800" type="line"/>
      <point x="25" y="577" type="line"/>
      <point x="54" y="577" type="line"/>
      <point x="130" y="775" type="line"/>
      <point x="295" y="775" type="line"/>
      <point x="295" y="36" type="line"/>
      <point x="203" y="21" type="line"/>
    </contour>
  </outline>
</glyph>
<glyph name="W" format="2">
  <advance width="1081"/>
  <unicode hex="0057"/>
  <outline>
    <contour>
      <point x="328" y="-20" type="line"/>
      <point x="336" y="-20" type="line"/>
      <point x="540" y="519" type="line"/>
      <point x="735" y="-20" type="line"/>
      <point x="743" y="-20" type="line"/>
      <point x="1029" y="734" type="line"/>
      <point x="1105" y="778" type="line"/>
      <point x="1105" y="800" type="line"/>
      <point x="890" y="800" type="line"/>
      <point x="890" y="778" type="line"/>
      <point x="1003" y="733" type="line"/>
      <point x="788" y="173" type="line"/>
      <point x="571" y="766" type="line"/>
      <point x="657" y="778" type="line"/>
      <point x="657" y="800" type="line"/>
      <point x="360" y="800" type="line"/>
      <point x="360" y="778" type="line"/>
      <point x="452" y="764" type="line"/>
      <point x="527" y="554" type="line"/>
      <point x="381" y="172" type="line"/>
      <point x="166" y="764" type="line"/>
      <point x="257" y="778" type="line"/>
      <point x="257" y="800" type="line"/>
      <point x="-21" y="800" type="line"/>
      <point x="-21" y="778" type="line"/>
      <point x="46" y="764" type="line"/>
    </contour>
  </outline>
</glyph>
<glyph name="Y" format="2">
  <advance width="657"/>
  <unicode hex="0059"/>
  <anchor x="329" y="0" name="bottom"/>
  <anchor x="329" y="800" name="top"/>
  <anchor x="20" y="800" name="topleft"/>
  <outline>
    <contour>
      <point x="196" y="0" type="line"/>
      <point x="490" y="0" type="line"/>
      <point x="490" y="21" type="line"/>
      <point x="397" y="36" type="line"/>
      <point x="397" y="373" type="line"/>
      <point x="605" y="729" type="line"/>
      <point x="682" y="778" type="line"/>
      <point x="682" y="800" type="line"/>
      <point x="458" y="800" type="line"/>
      <point x="458" y="778" type="line"/>
      <point x="578" y="730" type="line"/>
      <point x="385" y="401" type="line"/>
      <point x="175" y="764" type="line"/>
      <point x="268" y="778" type="line"/>
      <point x="268" y="800" type="line"/>
      <point x="-33" y="800" type="line"/>
      <point x="-33" y="778" type="line"/>
      <point x="46" y="764" type="line"/>
      <point x="289" y="340" type="line"/>
      <point x="289" y="36" type="line"/>
      <point x="196" y="21" type="line"/>
    </contour>
  </outline>
</glyph>
<glyph name="Z" format="2">
  <advance width="685"/>
  <unicode hex="005A"/>
  <outline>
    <contour>
      <point x="33" y="0" type="line"/>
      <point x="622" y="0" type="line"/>
      <point x="646" y="239" type="line"/>
      <point x="620" y="239" type="line"/>
      <point x="517" y="24" type="line"/>
      <point x="167" y="24" type="line"/>
      <point x="636" y="775" type="line"/>
      <point x="636" y="800" type="line"/>
      <point x="86" y="800" type="line"/>
      <point x="62" y="575" type="line"/>
      <point x="88" y="575" type="line"/>
      <point x="191" y="775" type="line"/>
      <point x="501" y="775" type="line"/>
      <point x="33" y="24" type="line"/>
    </contour>
  </outline>
</glyph>
<glyph name="bracketleft" format="2">
  <advance width="315"/>
  <unicode hex="005B"/>
  <outline>
    <contour>
      <point x="90" y="-185" type="line"/>
      <point x="304" y="-185" type="line"/>
      <point x="304" y="-155" type="line"/>
      <point x="191" y="-155" type="line"/>
      <point x="191" y="867" type="line"/>
      <point x="304" y="867" type="line"/>
      <point x="304" y="897" type="line"/>
      <point x="90" y="897" type="line"/>
    </contour>
  </outline>
</glyph>
<glyph name="bracketright" format="2">
  <advance width="315"/>
  <unicode hex="005D"/>
  <outline>
    <contour>
      <point x="12" y="-185" type="line"/>
      <point x="226" y="-185" type="line"/>
      <point x="226" y="897" type="line"/>
      <point x="12" y="897" type="line"/>
      <point x="12" y="867" type="line"/>
      <point x="125" y="867" type="line"/>
      <point x="125" y="-155" type="line"/>
      <point x="12" y="-155" type="line"/>
    </contour>
  </outline>
</glyph>
<glyph name="asciicircum" format="2">
  <advance width="580"/>
  <unicode hex="005E"/>
  <outline>
    <contour>
      <point x="64" y="267" type="line"/>
      <point x="114" y="267" type="line"/>
      <point x="289" y="612" type="line"/>
      <point x="465" y="267" type="line"/>
      <point x="515" y="267" type="line"/>
      <point x="309" y="674" type="line"/>
      <point x="270" y="674" type="line"/>
    </contour>
  </outline>
</glyph>
<glyph name="a" format="2">
  <advance width="567"/>
  <unicode hex="0061"/>
  <anchor x="284" y="0" name="bottom"/>
  <anchor x="510" y="10" name="ogonek"/>
  <anchor x="273" y="518" name="top"/>
  <outline>
    <contour>
      <point x="192" y="-10" type="curve" smooth="yes"/>
      <point x="271" y="-10"/>
      <point x="342" y="30"/>
      <point x="375" y="99" type="curve"/>
      <point x="377" y="20"/>
      <point x="429" y="-10"/>
      <point x="485" y="-10" type="curve" smooth="yes"/>
      <point x="538" y="-10"/>
      <point x="570" y="18"/>
      <point x="570" y="65" type="curve"/>
      <point x="549" y="65" type="line"/>
      <point x="549" y="38"/>
      <point x="535" y="22"/>
      <point x="512" y="22" type="curve" smooth="yes"/>
      <point x="488" y="22"/>
      <point x="475" y="38"/>
      <point x="475" y="67" type="curve" smooth="yes"/>
      <point x="475" y="353" type="line" smooth="yes"/>
      <point x="475" y="489"/>
      <point x="384" y="527"/>
      <point x="275" y="527" type="curve" smooth="yes"/>
      <point x="162" y="527"/>
      <point x="72" y="478"/>
      <point x="72" y="399" type="curve" smooth="yes"/>
      <point x="72" y="355"/>
      <point x="99" y="336"/>
      <point x="134" y="336" type="curve" smooth="yes"/>
      <point x="168" y="336"/>
      <point x="198" y="365"/>
      <point x="198" y="399" type="curve"/>
      <point x="180" y="405"/>
      <point x="170" y="417"/>
      <point x="170" y="437" type="curve" smooth="yes"/>
      <point x="170" y="476"/>
      <point x="198" y="505"/>
      <point x="263" y="505" type="curve" smooth="yes"/>
      <point x="342" y="505"/>
      <point x="375" y="477"/>
      <point x="375" y="373" type="curve" smooth="yes"/>
      <point x="375" y="296" type="line"/>
      <point x="308" y="296" type="line" smooth="yes"/>
      <point x="197" y="296"/>
      <point x="46" y="262"/>
      <point x="46" y="123" type="curve" smooth="yes"/>
      <point x="46" y="31"/>
      <point x="112" y="-10"/>
    </contour>
    <contour>
      <point x="247" y="34" type="curve" smooth="yes"/>
      <point x="184" y="34"/>
      <point x="145" y="59"/>
      <point x="145" y="135" type="curve" smooth="yes"/>
      <point x="145" y="220"/>
      <point x="196" y="274"/>
      <point x="308" y="274" type="curve" smooth="yes"/>
      <point x="375" y="274" type="line"/>
      <point x="375" y="170" type="line"/>
      <point x="367" y="80"/>
      <point x="299" y="34"/>
    </contour>
  </outline>
</glyph>
<glyph name="c" format="2">
  <advance width="547"/>
  <unicode hex="0063"/>
  <outline>
    <contour>
      <point x="302" y="-10" type="curve" smooth="yes"/>
      <point x="407" y="-10"/>
      <point x="487" y="53"/>
      <point x="506" y="152" type="curve"/>
      <point x="483" y="152" type="line"/>
      <point x="467" y="68"/>
      <point x="392" y="12"/>
      <point x="302" y="12" type="curve" smooth="yes"/>
      <point x="199" y="12"/>
      <point x="153" y="96"/>
      <point x="153" y="209" type="curve" smooth="yes"/>
      <point x="153" y="309" type="line" smooth="yes"/>
      <point x="153" y="432"/>
      <point x="206" y="505"/>
      <point x="302" y="505" type="curve" smooth="yes"/>
      <point x="368" y="505"/>
      <point x="410" y="470"/>
      <point x="410" y="421" type="curve" smooth="yes"/>
      <point x="410" y="397"/>
      <point x="403" y="383"/>
      <point x="383" y="369" type="curve"/>
      <point x="383" y="333"/>
      <point x="410" y="306"/>
      <point x="446" y="306" type="curve" smooth="yes"/>
      <point x="481" y="306"/>
      <point x="508" y="328"/>
      <point x="508" y="374" type="curve" smooth="yes"/>
      <point x="508" y="463"/>
      <point x="417" y="527"/>
      <point x="302" y="527" type="curve" smooth="yes"/>
      <point x="170" y="527"/>
      <point x="43" y="432"/>
      <point x="43" y="259" type="curve" smooth="yes"/>
      <point x="43" y="96"/>
      <point x="159" y="-10"/>
    </contour>
  </outline>
</glyph>
<glyph name="d" format="2">
  <advance width="642"/>
  <unicode hex="0064"/>
  <outline>
    <contour>
      <point x="282" y="-10" type="curve" smooth="yes"/>
      <point x="362" y="-10"/>
      <point x="419" y="36"/>
      <point x="451" y="104" type="curve"/>
      <point x="451" y="0" type="line"/>
      <point x="621" y="0" type="line"/>
      <point x="621" y="20" type="line"/>
      <point x="551" y="30" type="line"/>
      <point x="551" y="800" type="line"/>
      <point x="381" y="800" type="line"/>
      <point x="381" y="780" type="line"/>
      <point x="451" y="770" type="line"/>
      <point x="451" y="413" type="line"/>
      <point x="419" y="481"/>
      <point x="362" y="527"/>
      <point x="282" y="527" type="curve" smooth="yes"/>
      <point x="139" y="527"/>
      <point x="43" y="422"/>
      <point x="43" y="259" type="curve" smooth="yes"/>
      <point x="43" y="96"/>
      <point x="139" y="-10"/>
    </contour>
    <contour>
      <point x="292" y="15" type="curve" smooth="yes"/>
      <point x="189" y="15"/>
      <point x="153" y="96"/>
      <point x="153" y="209" type="curve" smooth="yes"/>
      <point x="153" y="309" type="line" smooth="yes"/>
      <point x="153" y="422"/>
      <point x="189" y="502"/>
      <point x="292" y="502" type="curve" smooth="yes"/>
      <point x="382" y="502"/>
      <point x="448" y="416"/>
      <point x="451" y="316" type="curve"/>
      <point x="451" y="201" type="line"/>
      <point x="448" y="101"/>
      <point x="382" y="15"/>
    </contour>
  </outline>
</glyph>
<glyph name="e" format="2">
  <advance width="561"/>
  <unicode hex="0065"/>
  <anchor x="281" y="0" name="bottom"/>
  <anchor x="505" y="10" name="ogonek"/>
  <anchor x="300" y="518" name="top"/>
  <outline>
    <contour>
      <point x="307" y="-10" type="curve" smooth="yes"/>
      <point x="417" y="-10"/>
      <point x="498" y="53"/>
      <point x="517" y="152" type="curve"/>
      <point x="494" y="152" type="line"/>
      <point x="478" y="68"/>
      <point x="397" y="12"/>
      <point x="307" y="12" type="curve" smooth="yes"/>
      <point x="204" y="12"/>
      <point x="153" y="96"/>
      <point x="153" y="209" type="curve" smooth="yes"/>
      <point x="153" y="308" type="line"/>
      <point x="521" y="308" type="line"/>
      <point x="519" y="437"/>
      <point x="429" y="527"/>
      <point x="301" y="527" type="curve" smooth="yes"/>
      <point x="158" y="527"/>
      <point x="43" y="422"/>
      <point x="43" y="259" type="curve" smooth="yes"/>
      <point x="43" y="96"/>
      <point x="159" y="-10"/>
    </contour>
    <contour>
      <point x="154" y="333" type="line"/>
      <point x="160" y="433"/>
      <point x="208" y="505"/>
      <point x="300" y="505" type="curve" smooth="yes"/>
      <point x="376" y="505"/>
      <point x="411" y="449"/>
      <point x="411" y="333" type="curve"/>
    </contour>
  </outline>
</glyph>
<glyph name="h" format="2">
  <advance width="629"/>
  <unicode hex="0068"/>
  <outline>
    <contour>
      <point x="21" y="0" type="line"/>
      <point x="251" y="0" type="line"/>
      <point x="251" y="20" type="line"/>
      <point x="191" y="30" type="line"/>
      <point x="191" y="375" type="line"/>
      <point x="229" y="432"/>
      <point x="289" y="491"/>
      <point x="355" y="491" type="curve" smooth="yes"/>
      <point x="415" y="491"/>
      <point x="441" y="449"/>
      <point x="441" y="382" type="curve" smooth="yes"/>
      <point x="441" y="30" type="line"/>
      <point x="381" y="20" type="line"/>
      <point x="381" y="0" type="line"/>
      <point x="611" y="0" type="line"/>
      <point x="611" y="20" type="line"/>
      <point x="541" y="30" type="line"/>
      <point x="541" y="384" type="line" smooth="yes"/>
      <point x="541" y="482"/>
      <point x="479" y="527"/>
      <point x="386" y="527" type="curve" smooth="yes"/>
      <point x="306" y="527"/>
      <point x="238" y="478"/>
      <point x="191" y="410" type="curve"/>
      <point x="191" y="800" type="line"/>
      <point x="21" y="800" type="line"/>
      <point x="21" y="780" type="line"/>
      <point x="91" y="770" type="line"/>
      <point x="91" y="30" type="line"/>
      <point x="21" y="20" type="line"/>
    </contour>
  </outline>
</glyph>
<glyph name="j" format="2">
  <advance width="278"/>
  <unicode hex="006A"/>
  <outline>
    <contour>
      <point x="32" y="-292" type="curve" smooth="yes"/>
      <point x="161" y="-292"/>
      <point x="197" y="-208"/>
      <point x="197" y="-104" type="curve" smooth="yes"/>
      <point x="197" y="518" type="line"/>
      <point x="22" y="518" type="line"/>
      <point x="22" y="498" type="line"/>
      <point x="97" y="488" type="line"/>
      <point x="97" y="-115" type="line" smooth="yes"/>
      <point x="97" y="-231"/>
      <point x="79" y="-270"/>
      <point x="32" y="-270" type="curve" smooth="yes"/>
      <point x="7" y="-270"/>
      <point x="-9" y="-251"/>
      <point x="-9" y="-233" type="curve" smooth="yes"/>
      <point x="-9" y="-216"/>
      <point x="-1" y="-201"/>
      <point x="22" y="-194" type="curve"/>
      <point x="22" y="-163"/>
      <point x="-4" y="-137"/>
      <point x="-35" y="-137" type="curve" smooth="yes"/>
      <point x="-69" y="-137"/>
      <point x="-90" y="-163"/>
      <point x="-90" y="-198" type="curve" smooth="yes"/>
      <point x="-90" y="-255"/>
      <point x="-43" y="-292"/>
    </contour>
    <contour>
      <point x="135" y="634" type="curve" smooth="yes"/>
      <point x="171" y="634"/>
      <point x="200" y="664"/>
      <point x="200" y="701" type="curve" smooth="yes"/>
      <point x="200" y="738"/>
      <point x="171" y="767"/>
      <point x="135" y="767" type="curve" smooth="yes"/>
      <point x="97" y="767"/>
      <point x="67" y="738"/>
      <point x="67" y="701" type="curve" smooth="yes"/>
      <point x="67" y="664"/>
      <point x="97" y="634"/>
    </contour>
  </outline>
</glyph>
<glyph name="l" format="2">
  <advance width="286"/>
  <unicode hex="006C"/>
  <outline>
    <contour>
      <point x="20" y="0" type="line"/>
      <point x="265" y="0" type="line"/>
      <point x="265" y="20" type="line"/>
      <point x="195" y="30" type="line"/>
      <point x="195" y="800" type="line"/>
      <point x="20" y="800" type="line"/>
      <point x="20" y="780" type="line"/>
      <point x="95" y="770" type="line"/>
      <point x="95" y="30" type="line"/>
      <point x="20" y="20" type="line"/>
    </contour>
  </outline>
</glyph>
<glyph name="t" format="2">
  <advance width="347"/>
  <unicode hex="0074"/>
  <outline>
    <contour>
      <point x="234" y="-10" type="curve" smooth="yes"/>
      <point x="280" y="-10"/>
      <point x="316" y="7"/>
      <point x="342" y="30" type="curve"/>
      <point x="329" y="46" type="line"/>
      <point x="329" y="46"/>
      <point x="302" y="24"/>
      <point x="265" y="24" type="curve" smooth="yes"/>
      <point x="205" y="24"/>
      <point x="189" y="72"/>
      <point x="189" y="130" type="curve" smooth="yes"/>
      <point x="189" y="488" type="line"/>
      <point x="319" y="498" type="line"/>
      <point x="319" y="518" type="line"/>
      <point x="189" y="518" type="line"/>
      <point x="189" y="626" type="line"/>
      <point x="89" y="601" type="line"/>
      <point x="89" y="518" type="line"/>
      <point x="18" y="518" type="line"/>
      <point x="18" y="498" type="line"/>
      <point x="89" y="488" type="line"/>
      <point x="89" y="128" type="line" smooth="yes"/>
      <point x="89" y="26"/>
      <point x="152" y="-10"/>
    </contour>
  </outline>
</glyph>
<glyph name="bar" format="2">
  <advance width="219"/>
  <unicode hex="007C"/>
  <outline>
    <contour>
      <point x="92" y="-240" type="line"/>
      <point x="127" y="-240" type="line"/>
      <point x="127" y="760" type="line"/>
      <point x="92" y="760" type="line"/>
    </contour>
  </outline>
</glyph>
<glyph name="braceright" format="2">
  <advance width="315"/>
  <unicode hex="007D"/>
  <outline>
    <contour>
      <point x="24" y="-194" type="line"/>
      <point x="137" y="-194"/>
      <point x="205" y="-156"/>
      <point x="205" y="-46" type="curve" smooth="yes"/>
      <point x="205" y="19"/>
      <point x="184" y="135"/>
      <point x="184" y="196" type="curve" smooth="yes"/>
      <point x="184" y="275"/>
      <point x="210" y="348"/>
      <point x="302" y="348" type="curve"/>
      <point x="302" y="365" type="line"/>
      <point x="210" y="365"/>
      <point x="184" y="438"/>
      <point x="184" y="517" type="curve" smooth="yes"/>
      <point x="184" y="578"/>
      <point x="205" y="694"/>
      <point x="205" y="760" type="curve" smooth="yes"/>
      <point x="205" y="869"/>
      <point x="137" y="907"/>
      <point x="24" y="907" type="curve"/>
      <point x="24" y="889" type="line"/>
      <point x="86" y="889"/>
      <point x="108" y="857"/>
      <point x="108" y="777" type="curve" smooth="yes"/>
      <point x="108" y="722"/>
      <point x="89" y="583"/>
      <point x="89" y="531" type="curve" smooth="yes"/>
      <point x="89" y="440"/>
      <point x="141" y="376"/>
      <point x="235" y="356" type="curve"/>
      <point x="141" y="337"/>
      <point x="89" y="273"/>
      <point x="89" y="182" type="curve" smooth="yes"/>
      <point x="89" y="130"/>
      <point x="108" y="-9"/>
      <point x="108" y="-63" type="curve" smooth="yes"/>
      <point x="108" y="-144"/>
      <point x="86" y="-175"/>
      <point x="24" y="-175" type="curve"/>
    </contour>
  </outline>
</glyph>
<glyph name="asciitilde" format="2">
  <advance width="535"/>
  <unicode hex="007E"/>
  <outline>
    <contour>
      <point x="366" y="176" type="curve" smooth="yes"/>
      <point x="451" y="176"/>
      <point x="487" y="302"/>
      <point x="487" y="302" type="curve"/>
      <point x="451" y="313" type="line"/>
      <point x="451" y="313"/>
      <point x="423" y="214"/>
      <point x="366" y="214" type="curve" smooth="yes"/>
      <point x="335" y="214"/>
      <point x="309" y="242"/>
      <point x="283" y="270" type="curve" smooth="yes"/>
      <point x="252" y="303"/>
      <point x="219" y="337"/>
      <point x="170" y="337" type="curve" smooth="yes"/>
      <point x="85" y="337"/>
      <point x="49" y="212"/>
      <point x="49" y="212" type="curve"/>
      <point x="50" y="212"/>
      <point x="87" y="201"/>
      <point x="87" y="201" type="curve"/>
      <point x="87" y="201"/>
      <point x="114" y="299"/>
      <point x="170" y="299" type="curve" smooth="yes"/>
      <point x="203" y="299"/>
      <point x="229" y="271"/>
      <point x="255" y="243" type="curve" smooth="yes"/>
      <point x="287" y="209"/>
      <point x="318" y="176"/>
    </contour>
  </outline>
</glyph>
<glyph name="currency" format="2">
  <advance width="547"/>
  <unicode hex="00A4"/>
  <outline>
    <contour>
      <point x="87" y="145" type="line"/>
      <point x="162" y="220" type="line"/>
      <point x="193" y="196"/>
      <point x="232" y="182"/>
      <point x="274" y="182" type="curve" smooth="yes"/>
      <point x="315" y="182"/>
      <point x="353" y="196"/>
      <point x="384" y="221" type="curve"/>
      <point x="460" y="146" type="line"/>
      <point x="487" y="173" type="line"/>
      <point x="411" y="248" type="line"/>
      <point x="436" y="279"/>
      <point x="451" y="317"/>
      <point x="451" y="359" type="curve" smooth="yes"/>
      <point x="451" y="400"/>
      <point x="436" y="439"/>
      <point x="411" y="469" type="curve"/>
      <point x="487" y="545" type="line"/>
      <point x="460" y="573" type="line"/>
      <point x="383" y="496" type="line"/>
      <point x="353" y="520"/>
      <point x="315" y="535"/>
      <point x="274" y="535" type="curve" smooth="yes"/>
      <point x="232" y="535"/>
      <point x="193" y="521"/>
      <point x="163" y="497" type="curve"/>
      <point x="88" y="572" type="line"/>
      <point x="61" y="544" type="line"/>
      <point x="136" y="470" type="line"/>
      <point x="111" y="439"/>
      <point x="96" y="401"/>
      <point x="96" y="359" type="curve" smooth="yes"/>
      <point x="96" y="317"/>
      <point x="110" y="278"/>
      <point x="135" y="248" type="curve"/>
      <point x="60" y="172" type="line"/>
    </contour>
    <contour>
      <point x="274" y="220" type="curve" smooth="yes"/>
      <point x="197" y="220"/>
      <point x="135" y="282"/>
      <point x="135" y="359" type="curve" smooth="yes"/>
      <point x="135" y="435"/>
      <point x="197" y="497"/>
      <point x="274" y="497" type="curve" smooth="yes"/>
      <point x="350" y="497"/>
      <point x="413" y="435"/>
      <point x="413" y="359" type="curve" smooth="yes"/>
      <point x="413" y="282"/>
      <point x="350" y="220"/>
    </contour>
  </outline>
</glyph>
<glyph name="yen" format="2">
  <advance width="676"/>
  <unicode hex="00A5"/>
  <anchor x="329" y="0" name="bottom"/>
  <anchor x="329" y="800" name="top"/>
  <anchor x="20" y="800" name="topleft"/>
  <outline>
    <contour>
      <point x="127" y="349" type="line"/>
      <point x="563" y="349" type="line"/>
      <point x="563" y="374" type="line"/>
      <point x="127" y="374" type="line"/>
    </contour>
    <contour>
      <point x="127" y="249" type="line"/>
      <point x="563" y="249" type="line"/>
      <point x="563" y="274" type="line"/>
      <point x="127" y="274" type="line"/>
    </contour>
    <component base="Y"/>
  </outline>
</glyph>
<glyph name="copyright" format="2">
  <advance width="922"/>
  <unicode hex="00A9"/>
  <outline>
    <contour>
      <point x="461" y="-10" type="curve" smooth="yes"/>
      <point x="687" y="-10"/>
      <point x="871" y="173"/>
      <point x="871" y="399" type="curve" smooth="yes"/>
      <point x="871" y="625"/>
      <point x="687" y="810"/>
      <point x="461" y="810" type="curve" smooth="yes"/>
      <point x="235" y="810"/>
      <point x="51" y="625"/>
      <point x="51" y="399" type="curve" smooth="yes"/>
      <point x="51" y="173"/>
      <point x="235" y="-10"/>
    </contour>
    <contour>
      <point x="462" y="138" type="curve" smooth="yes"/>
      <point x="500" y="138"/>
      <point x="542" y="153"/>
      <point x="572" y="177" type="curve"/>
      <point x="618" y="144" type="line"/>
      <point x="637" y="144" type="line"/>
      <point x="637" y="309" type="line"/>
      <point x="618" y="309" type="line"/>
      <point x="582" y="221" type="line"/>
      <point x="553" y="189"/>
      <point x="505" y="167"/>
      <point x="462" y="167" type="curve" smooth="yes"/>
      <point x="373" y="167"/>
      <point x="321" y="221"/>
      <point x="321" y="341" type="curve" smooth="yes"/>
      <point x="321" y="458" type="line" smooth="yes"/>
      <point x="321" y="579"/>
      <point x="373" y="633"/>
      <point x="462" y="633" type="curve" smooth="yes"/>
      <point x="501" y="633"/>
      <point x="543" y="618"/>
      <point x="573" y="588" type="curve"/>
      <point x="612" y="504" type="line"/>
      <point x="631" y="504" type="line"/>
      <point x="631" y="662" type="line"/>
      <point x="612" y="662" type="line"/>
      <point x="569" y="625" type="line"/>
      <point x="536" y="649"/>
      <point x="499" y="662"/>
      <point x="462" y="662" type="curve" smooth="yes"/>
      <point x="320" y="662"/>
      <point x="225" y="556"/>
      <point x="225" y="400" type="curve" smooth="yes"/>
      <point x="225" y="245"/>
      <point x="320" y="138"/>
    </contour>
    <contour>
      <point x="461" y="27" type="curve" smooth="yes"/>
      <point x="253" y="27"/>
      <point x="89" y="191"/>
      <point x="89" y="399" type="curve" smooth="yes"/>
      <point x="89" y="606"/>
      <point x="253" y="771"/>
      <point x="461" y="771" type="curve" smooth="yes"/>
      <point x="669" y="771"/>
      <point x="832" y="607"/>
      <point x="832" y="399" type="curve" smooth="yes"/>
      <point x="832" y="191"/>
      <point x="669" y="27"/>
    </contour>
  </outline>
</glyph>
<glyph name="softhyphen" format="2">
  <advance width="390"/>
  <unicode hex="00AD"/>
  <outline>
    <contour>
      <point x="65" y="339" type="line"/>
      <point x="325" y="339" type="line"/>
      <point x="325" y="375" type="line"/>
      <point x="65" y="375" type="line"/>
    </contour>
  </outline>
</glyph>
<glyph name="degree" format="2">
  <advance width="371"/>
  <unicode hex="00B0"/>
  <outline>
    <contour>
      <point x="186" y="462" type="curve" smooth="yes"/>
      <point x="267" y="462"/>
      <point x="332" y="528"/>
      <point x="332" y="609" type="curve" smooth="yes"/>
      <point x="332" y="690"/>
      <point x="267" y="755"/>
      <point x="186" y="755" type="curve" smooth="yes"/>
      <point x="105" y="755"/>
      <point x="39" y="690"/>
      <point x="39" y="609" type="curve" smooth="yes"/>
      <point x="39" y="528"/>
      <point x="105" y="462"/>
    </contour>
    <contour>
      <point x="186" y="501" type="curve" smooth="yes"/>
      <point x="127" y="501"/>
      <point x="78" y="550"/>
      <point x="78" y="609" type="curve" smooth="yes"/>
      <point x="78" y="667"/>
      <point x="127" y="717"/>
      <point x="186" y="717" type="curve" smooth="yes"/>
      <point x="244" y="717"/>
      <point x="294" y="667"/>
      <point x="294" y="609" type="curve" smooth="yes"/>
      <point x="294" y="550"/>
      <point x="244" y="501"/>
    </contour>
  </outline>
</glyph>
<glyph name="threesuperior" format="2">
  <advance width="373"/>
  <unicode hex="00B3"/>
  <outline>
    <contour>
      <point x="166" y="371" type="curve" smooth="yes"/>
      <point x="274" y="371"/>
      <point x="332" y="429"/>
      <point x="332" y="492" type="curve" smooth="yes"/>
      <point x="332" y="578"/>
      <point x="266" y="606"/>
      <point x="185" y="611" type="curve"/>
      <point x="185" y="613" type="line"/>
      <point x="266" y="623"/>
      <point x="305" y="659"/>
      <point x="305" y="712" type="curve" smooth="yes"/>
      <point x="305" y="774"/>
      <point x="255" y="805"/>
      <point x="177" y="805" type="curve" smooth="yes"/>
      <point x="117" y="805"/>
      <point x="62" y="780"/>
      <point x="62" y="719" type="curve" smooth="yes"/>
      <point x="62" y="687"/>
      <point x="83" y="669"/>
      <point x="105" y="669" type="curve" smooth="yes"/>
      <point x="126" y="669"/>
      <point x="146" y="682"/>
      <point x="146" y="711" type="curve"/>
      <point x="128" y="718"/>
      <point x="117" y="727"/>
      <point x="117" y="746" type="curve" smooth="yes"/>
      <point x="117" y="766"/>
      <point x="130" y="783"/>
      <point x="167" y="783" type="curve" smooth="yes"/>
      <point x="210" y="783"/>
      <point x="230" y="756"/>
      <point x="230" y="715" type="curve" smooth="yes"/>
      <point x="230" y="657"/>
      <point x="208" y="627"/>
      <point x="133" y="623" type="curve"/>
      <point x="133" y="602" type="line"/>
      <point x="217" y="596"/>
      <point x="247" y="562"/>
      <point x="247" y="492" type="curve" smooth="yes"/>
      <point x="247" y="422"/>
      <point x="208" y="393"/>
      <point x="166" y="393" type="curve" smooth="yes"/>
      <point x="120" y="393"/>
      <point x="99" y="409"/>
      <point x="99" y="437" type="curve" smooth="yes"/>
      <point x="99" y="450"/>
      <point x="108" y="466"/>
      <point x="129" y="477" type="curve"/>
      <point x="129" y="506"/>
      <point x="108" y="519"/>
      <point x="87" y="519" type="curve" smooth="yes"/>
      <point x="65" y="519"/>
      <point x="43" y="501"/>
      <point x="43" y="469" type="curve" smooth="yes"/>
      <point x="43" y="410"/>
      <point x="100" y="371"/>
    </contour>
  </outline>
</glyph>
<glyph name="periodcentered" format="2">
  <advance width="246"/>
  <unicode hex="00B7"/>
  <outline>
    <contour>
      <point x="123" y="234" type="curve" smooth="yes"/>
      <point x="158" y="234"/>
      <point x="188" y="264"/>
      <point x="188" y="299" type="curve" smooth="yes"/>
      <point x="188" y="334"/>
      <point x="158" y="364"/>
      <point x="123" y="364" type="curve" smooth="yes"/>
      <point x="88" y="364"/>
      <point x="58" y="334"/>
      <point x="58" y="299" type="curve" smooth="yes"/>
      <point x="58" y="264"/>
      <point x="88" y="234"/>
    </contour>
  </outline>
</glyph>
<glyph name="ordmasculine" format="2">
  <advance width="505"/>
  <unicode hex="00BA"/>
  <outline>
    <contour>
      <point x="252" y="371" type="curve" smooth="yes"/>
      <point x="372" y="371"/>
      <point x="467" y="456"/>
      <point x="467" y="587" type="curve" smooth="yes"/>
      <point x="467" y="720"/>
      <point x="372" y="805"/>
      <point x="252" y="805" type="curve" smooth="yes"/>
      <point x="131" y="805"/>
      <point x="38" y="720"/>
      <point x="38" y="587" type="curve" smooth="yes"/>
      <point x="38" y="456"/>
      <point x="131" y="371"/>
    </contour>
    <contour>
      <point x="252" y="398" type="curve" smooth="yes"/>
      <point x="169" y="398"/>
      <point x="136" y="460"/>
      <point x="136" y="547" type="curve" smooth="yes"/>
      <point x="136" y="628" type="line" smooth="yes"/>
      <point x="136" y="715"/>
      <point x="169" y="777"/>
      <point x="252" y="777" type="curve" smooth="yes"/>
      <point x="335" y="777"/>
      <point x="368" y="715"/>
      <point x="368" y="628" type="curve" smooth="yes"/>
      <point x="368" y="547" type="line" smooth="yes"/>
      <point x="368" y="460"/>
      <point x="335" y="398"/>
    </contour>
  </outline>
</glyph>
<glyph name="guillemetright" format="2">
  <advance width="370"/>
  <unicode hex="00BB"/>
  <outline>
    <contour>
      <point x="150" y="70" type="line"/>
      <point x="323" y="261" type="line"/>
      <point x="323" y="279" type="line"/>
      <point x="150" y="470" type="line"/>
      <point x="141" y="460" type="line"/>
      <point x="235" y="270" type="line"/>
      <point x="141" y="79" type="line"/>
    </contour>
    <contour>
      <point x="64" y="145" type="line"/>
      <point x="175" y="263" type="line"/>
      <point x="175" y="277" type="line"/>
      <point x="64" y="395" type="line"/>
      <point x="55" y="386" type="line"/>
      <point x="99" y="270" type="line"/>
      <point x="55" y="153" type="line"/>
    </contour>
  </outline>
</glyph>
<glyph name="AE" format="2">
  <advance width="1114"/>
  <unicode hex="00C6"/>
  <outline>
    <contour>
      <point x="-40" y="0" type="line"/>
      <point x="174" y="0" type="line"/>
      <point x="174" y="21" type="line"/>
      <point x="85" y="60" type="line"/>
      <point x="249" y="309" type="line"/>
      <point x="541" y="309" type="line"/>
      <point x="541" y="0" type="line"/>
      <point x="1058" y="0" type="line"/>
      <point x="1058" y="244" type="line"/>
      <point x="1031" y="244" type="line"/>
      <point x="949" y="24" type="line"/>
      <point x="650" y="24" type="line"/>
      <point x="650" y="391" type="line"/>
      <point x="770" y="391" type="line"/>
      <point x="829" y="244" type="line"/>
      <point x="856" y="244" type="line"/>
      <point x="856" y="560" type="line"/>
      <point x="829" y="560" type="line"/>
      <point x="770" y="415" type="line"/>
      <point x="650" y="415" type="line"/>
      <point x="650" y="775" type="line"/>
      <point x="931" y="775" type="line"/>
      <point x="1008" y="571" type="line"/>
      <point x="1035" y="571" type="line"/>
      <point x="1035" y="800" type="line"/>
      <point x="432" y="800" type="line"/>
      <point x="432" y="778" type="line"/>
      <point x="517" y="764" type="line"/>
      <point x="55" y="60" type="line"/>
      <point x="-40" y="21" type="line"/>
    </contour>
    <contour>
      <point x="263" y="330" type="line"/>
      <point x="541" y="751" type="line"/>
      <point x="541" y="330" type="line"/>
    </contour>
  </outline>
</glyph>
<glyph name="Ccedilla" format="2">
  <advance width="746"/>
  <unicode hex="00C7"/>
  <outline>
    <contour>
      <point x="398" y="-242" type="curve" smooth="yes"/>
      <point x="461" y="-242"/>
      <point x="524" y="-215"/>
      <point x="524" y="-146" type="curve" smooth="yes"/>
      <point x="524" y="-83"/>
      <point x="473" y="-57"/>
      <point x="402" y="-54" type="curve"/>
      <point x="410" y="-20" type="line"/>
      <point x="417" y="-20" type="line" smooth="yes"/>
      <point x="477" y="-20"/>
      <point x="542" y="3"/>
      <point x="590" y="41" type="curve"/>
      <point x="662" y="-10" type="line"/>
      <point x="683" y="-10" type="line"/>
      <point x="683" y="247" type="line"/>
      <point x="662" y="247" type="line"/>
      <point x="604" y="86" type="line"/>
      <point x="559" y="36"/>
      <point x="485" y="3"/>
      <point x="417" y="3" type="curve" smooth="yes"/>
      <point x="278" y="3"/>
      <point x="185" y="115"/>
      <point x="185" y="309" type="curve" smooth="yes"/>
      <point x="185" y="492" type="line" smooth="yes"/>
      <point x="185" y="686"/>
      <point x="283" y="797"/>
      <point x="422" y="797" type="curve" smooth="yes"/>
      <point x="483" y="797"/>
      <point x="549" y="769"/>
      <point x="595" y="727" type="curve"/>
      <point x="657" y="572" type="line"/>
      <point x="678" y="572" type="line"/>
      <point x="678" y="820" type="line"/>
      <point x="657" y="820" type="line"/>
      <point x="590" y="763" type="line"/>
      <point x="542" y="798"/>
      <point x="480" y="820"/>
      <point x="422" y="820" type="curve" smooth="yes"/>
      <point x="201" y="820"/>
      <point x="55" y="650"/>
      <point x="55" y="400" type="curve" smooth="yes"/>
      <point x="55" y="164"/>
      <point x="182" y="-2"/>
      <point x="383" y="-18" type="curve"/>
      <point x="367" y="-79" type="line"/>
      <point x="418" y="-84"/>
      <point x="439" y="-113"/>
      <point x="439" y="-147" type="curve" smooth="yes"/>
      <point x="439" y="-197"/>
      <point x="399" y="-214"/>
      <point x="360" y="-214" type="curve" smooth="yes"/>
      <point x="350" y="-214"/>
      <point x="340" y="-213"/>
      <point x="332" y="-211" type="curve"/>
      <point x="326" y="-233" type="line"/>
      <point x="347" y="-239"/>
      <point x="371" y="-242"/>
    </contour>
  </outline>
</glyph>
<glyph name="Eth" format="2">
  <advance width="859"/>
  <unicode hex="00D0"/>
  <outline>
    <contour>
      <point x="40" y="0" type="line"/>
      <point x="423" y="0" type="line" smooth="yes"/>
      <point x="643" y="0"/>
      <point x="800" y="157"/>
      <point x="800" y="400" type="curve" smooth="yes"/>
      <point x="800" y="644"/>
      <point x="643" y="800"/>
      <point x="423" y="800" type="curve" smooth="yes"/>
      <point x="40" y="800" type="line"/>
      <point x="40" y="778" type="line"/>
      <point x="132" y="764" type="line"/>
      <point x="132" y="408" type="line"/>
      <point x="56" y="408" type="line"/>
      <point x="56" y="375" type="line"/>
      <point x="132" y="375" type="line"/>
      <point x="132" y="36" type="line"/>
      <point x="40" y="21" type="line"/>
    </contour>
    <contour>
      <point x="242" y="24" type="line"/>
      <point x="242" y="375" type="line"/>
      <point x="426" y="375" type="line"/>
      <point x="426" y="408" type="line"/>
      <point x="242" y="408" type="line"/>
      <point x="242" y="775" type="line"/>
      <point x="423" y="775" type="line" smooth="yes"/>
      <point x="566" y="775"/>
      <point x="673" y="675"/>
      <point x="673" y="477" type="curve" smooth="yes"/>
      <point x="673" y="323" type="line" smooth="yes"/>
      <point x="673" y="127"/>
      <point x="568" y="26"/>
      <point x="427" y="24" type="curve"/>
    </contour>
  </outline>
</glyph>
<glyph name="multiply" format="2">
  <advance width="495"/>
  <unicode hex="00D7"/>
  <outline>
    <contour>
      <point x="406" y="170" type="line"/>
      <point x="433" y="197" type="line"/>
      <point x="273" y="356" type="line"/>
      <point x="433" y="516" type="line"/>
      <point x="406" y="543" type="line"/>
      <point x="246" y="383" type="line"/>
      <point x="88" y="542" type="line"/>
      <point x="61" y="515" type="line"/>
      <point x="219" y="356" type="line"/>
      <point x="61" y="198" type="line"/>
      <point x="88" y="171" type="line"/>
      <point x="247" y="330" type="line"/>
    </contour>
  </outline>
</glyph>
<glyph name="Thorn" format="2">
  <advance width="707"/>
  <unicode hex="00DE"/>
  <outline>
    <contour>
      <point x="40" y="0" type="line"/>
      <point x="338" y="0" type="line"/>
      <point x="338" y="21" type="line"/>
      <point x="246" y="36" type="line"/>
      <point x="246" y="183" type="line"/>
      <point x="358" y="183" type="line" smooth="yes"/>
      <point x="576" y="183"/>
      <point x="678" y="248"/>
      <point x="678" y="403" type="curve" smooth="yes"/>
      <point x="678" y="559"/>
      <point x="576" y="624"/>
      <point x="358" y="624" type="curve" smooth="yes"/>
      <point x="246" y="624" type="line"/>
      <point x="246" y="764" type="line"/>
      <point x="338" y="778" type="line"/>
      <point x="338" y="800" type="line"/>
      <point x="40" y="800" type="line"/>
      <point x="40" y="778" type="line"/>
      <point x="132" y="764" type="line"/>
      <point x="132" y="36" type="line"/>
      <point x="40" y="21" type="line"/>
    </contour>
    <contour>
      <point x="246" y="207" type="line"/>
      <point x="246" y="600" type="line"/>
      <point x="344" y="600" type="line" smooth="yes"/>
      <point x="489" y="600"/>
      <point x="550" y="533"/>
      <point x="550" y="418" type="curve" smooth="yes"/>
      <point x="550" y="388" type="line" smooth="yes"/>
      <point x="550" y="274"/>
      <point x="489" y="207"/>
      <point x="344" y="207" type="curve" smooth="yes"/>
    </contour>
  </outline>
</glyph>
<glyph name="ae" format="2">
  <advance width="878"/>
  <unicode hex="00E6"/>
  <outline>
    <contour>
      <point x="180" y="-10" type="curve" smooth="yes"/>
      <point x="273" y="-10"/>
      <point x="343" y="30"/>
      <point x="383" y="138" type="curve"/>
      <point x="421" y="46"/>
      <point x="515" y="-10"/>
      <point x="624" y="-10" type="curve" smooth="yes"/>
      <point x="734" y="-10"/>
      <point x="815" y="53"/>
      <point x="834" y="152" type="curve"/>
      <point x="811" y="152" type="line"/>
      <point x="795" y="68"/>
      <point x="714" y="12"/>
      <point x="624" y="12" type="curve" smooth="yes"/>
      <point x="521" y="12"/>
      <point x="470" y="96"/>
      <point x="470" y="209" type="curve" smooth="yes"/>
      <point x="470" y="308" type="line"/>
      <point x="838" y="308" type="line"/>
      <point x="836" y="437"/>
      <point x="746" y="527"/>
      <point x="618" y="527" type="curve" smooth="yes"/>
      <point x="550" y="527"/>
      <point x="489" y="504"/>
      <point x="443" y="461" type="curve"/>
      <point x="410" y="509"/>
      <point x="345" y="527"/>
      <point x="266" y="527" type="curve" smooth="yes"/>
      <point x="160" y="527"/>
      <point x="65" y="478"/>
      <point x="65" y="399" type="curve" smooth="yes"/>
      <point x="65" y="365"/>
      <point x="92" y="336"/>
      <point x="127" y="336" type="curve" smooth="yes"/>
      <point x="161" y="336"/>
      <point x="191" y="365"/>
      <point x="191" y="399" type="curve"/>
      <point x="173" y="405"/>
      <point x="163" y="417"/>
      <point x="163" y="437" type="curve" smooth="yes"/>
      <point x="163" y="469"/>
      <point x="202" y="505"/>
      <point x="266" y="505" type="curve" smooth="yes"/>
      <point x="330" y="505"/>
      <point x="368" y="470"/>
      <point x="368" y="393" type="curve" smooth="yes"/>
      <point x="368" y="298" type="line"/>
      <point x="331" y="298" type="line" smooth="yes"/>
      <point x="190" y="298"/>
      <point x="39" y="262"/>
      <point x="39" y="123" type="curve" smooth="yes"/>
      <point x="39" y="31"/>
      <point x="105" y="-10"/>
    </contour>
    <contour>
      <point x="230" y="37" type="curve" smooth="yes"/>
      <point x="179" y="37"/>
      <point x="148" y="69"/>
      <point x="148" y="123" type="curve" smooth="yes"/>
      <point x="148" y="231"/>
      <point x="236" y="273"/>
      <point x="331" y="273" type="curve" smooth="yes"/>
      <point x="368" y="273" type="line"/>
      <point x="368" y="191" type="line" smooth="yes"/>
      <point x="368" y="104"/>
      <point x="298" y="37"/>
    </contour>
    <contour>
      <point x="471" y="333" type="line"/>
      <point x="478" y="433"/>
      <point x="525" y="505"/>
      <point x="618" y="505" type="curve" smooth="yes"/>
      <point x="693" y="505"/>
      <point x="729" y="449"/>
      <point x="729" y="333" type="curve"/>
    </contour>
  </outline>
</glyph>
<glyph name="ccedilla" format="2">
  <advance width="547"/>
  <unicode hex="00E7"/>
  <outline>
    <contour>
      <point x="304" y="-232" type="curve" smooth="yes"/>
      <point x="367" y="-232"/>
      <point x="430" y="-205"/>
      <point x="430" y="-136" type="curve" smooth="yes"/>
      <point x="430" y="-73"/>
      <point x="379" y="-47"/>
      <point x="308" y="-44" type="curve"/>
      <point x="316" y="-9" type="line"/>
      <point x="414" y="-4"/>
      <point x="488" y="57"/>
      <point x="506" y="152" type="curve"/>
      <point x="483" y="152" type="line"/>
      <point x="467" y="68"/>
      <point x="392" y="12"/>
      <point x="302" y="12" type="curve" smooth="yes"/>
      <point x="199" y="12"/>
      <point x="153" y="96"/>
      <point x="153" y="209" type="curve" smooth="yes"/>
      <point x="153" y="309" type="line" smooth="yes"/>
      <point x="153" y="432"/>
      <point x="206" y="505"/>
      <point x="302" y="505" type="curve" smooth="yes"/>
      <point x="368" y="505"/>
      <point x="410" y="470"/>
      <point x="410" y="421" type="curve" smooth="yes"/>
      <point x="410" y="397"/>
      <point x="403" y="383"/>
      <point x="383" y="369" type="curve"/>
      <point x="383" y="333"/>
      <point x="410" y="306"/>
      <point x="446" y="306" type="curve" smooth="yes"/>
      <point x="481" y="306"/>
      <point x="508" y="328"/>
      <point x="508" y="374" type="curve" smooth="yes"/>
      <point x="508" y="463"/>
      <point x="417" y="527"/>
      <point x="302" y="527" type="curve" smooth="yes"/>
      <point x="170" y="527"/>
      <point x="43" y="432"/>
      <point x="43" y="259" type="curve" smooth="yes"/>
      <point x="43" y="101"/>
      <point x="152" y="-3"/>
      <point x="289" y="-10" type="curve"/>
      <point x="273" y="-69" type="line"/>
      <point x="324" y="-74"/>
      <point x="345" y="-103"/>
      <point x="345" y="-137" type="curve" smooth="yes"/>
      <point x="345" y="-187"/>
      <point x="305" y="-204"/>
      <point x="266" y="-204" type="curve" smooth="yes"/>
      <point x="256" y="-204"/>
      <point x="246" y="-203"/>
      <point x="238" y="-201" type="curve"/>
      <point x="232" y="-223" type="line"/>
      <point x="253" y="-229"/>
      <point x="277" y="-232"/>
    </contour>
  </outline>
</glyph>
<glyph name="oslash" format="2">
  <advance width="604"/>
  <unicode hex="00F8"/>
  <outline>
    <contour>
      <point x="130" y="-74" type="line"/>
      <point x="170" y="-74" type="line"/>
      <point x="206" y="7" type="line"/>
      <point x="235" y="-4"/>
      <point x="268" y="-10"/>
      <point x="302" y="-10" type="curve" smooth="yes"/>
      <point x="445" y="-10"/>
      <point x="561" y="96"/>
      <point x="561" y="259" type="curve" smooth="yes"/>
      <point x="561" y="369"/>
      <point x="508" y="453"/>
      <point x="429" y="496" type="curve"/>
      <point x="475" y="601" type="line"/>
      <point x="435" y="601" type="line"/>
      <point x="395" y="511" type="line"/>
      <point x="366" y="521"/>
      <point x="334" y="527"/>
      <point x="302" y="527" type="curve" smooth="yes"/>
      <point x="159" y="527"/>
      <point x="43" y="422"/>
      <point x="43" y="259" type="curve" smooth="yes"/>
      <point x="43" y="149"/>
      <point x="95" y="65"/>
      <point x="173" y="22" type="curve"/>
    </contour>
    <contour>
      <point x="193" y="62" type="line"/>
      <point x="166" y="98"/>
      <point x="153" y="149"/>
      <point x="153" y="209" type="curve"/>
      <point x="153" y="309" type="line" smooth="yes"/>
      <point x="153" y="422"/>
      <point x="199" y="505"/>
      <point x="302" y="505" type="curve" smooth="yes"/>
      <point x="333" y="505"/>
      <point x="359" y="497"/>
      <point x="380" y="484" type="curve"/>
    </contour>
    <contour>
      <point x="302" y="12" type="curve" smooth="yes"/>
      <point x="269" y="12"/>
      <point x="243" y="20"/>
      <point x="221" y="35" type="curve"/>
      <point x="409" y="458" type="line"/>
      <point x="438" y="423"/>
      <point x="451" y="370"/>
      <point x="451" y="309" type="curve" smooth="yes"/>
      <point x="451" y="209" type="line" smooth="yes"/>
      <point x="451" y="96"/>
      <point x="405" y="12"/>
    </contour>
  </outline>
</glyph>
<glyph name="thorn" format="2">
  <advance width="626"/>
  <unicode hex="00FE"/>
  <outline>
    <contour>
      <point x="7" y="-283" type="line"/>
      <point x="271" y="-283" type="line"/>
      <point x="271" y="-263" type="line"/>
      <point x="177" y="-253" type="line"/>
      <point x="177" y="97" type="line"/>
      <point x="209" y="33"/>
      <point x="265" y="-10"/>
      <point x="343" y="-10" type="curve" smooth="yes"/>
      <point x="486" y="-10"/>
      <point x="582" y="95"/>
      <point x="582" y="258" type="curve" smooth="yes"/>
      <point x="582" y="421"/>
      <point x="486" y="527"/>
      <point x="343" y="527" type="curve" smooth="yes"/>
      <point x="265" y="527"/>
      <point x="209" y="483"/>
      <point x="177" y="418" type="curve"/>
      <point x="177" y="800" type="line"/>
      <point x="7" y="800" type="line"/>
      <point x="7" y="780" type="line"/>
      <point x="77" y="770" type="line"/>
      <point x="77" y="-253" type="line"/>
      <point x="7" y="-263" type="line"/>
    </contour>
    <contour>
      <point x="333" y="15" type="curve" smooth="yes"/>
      <point x="251" y="15"/>
      <point x="191" y="84"/>
      <point x="177" y="170" type="curve"/>
      <point x="177" y="346" type="line"/>
      <point x="191" y="432"/>
      <point x="251" y="502"/>
      <point x="333" y="502" type="curve" smooth="yes"/>
      <point x="436" y="502"/>
      <point x="472" y="421"/>
      <point x="472" y="308" type="curve" smooth="yes"/>
      <point x="472" y="208" type="line" smooth="yes"/>
      <point x="472" y="95"/>
      <point x="436" y="15"/>
    </contour>
  </outline>
</glyph>
<glyph name="Uhorn" format="2">
  <advance width="809"/>
  <unicode hex="01AF"/>
  <anchor x="405" y="0" name="bottom"/>
  <anchor x="728" y="10" name="ogonek"/>
  <anchor x="405" y="800" name="top"/>
  <anchor x="789" y="800" name="topright"/>
  <outline>
    <contour>
      <point x="402" y="-20" type="curve" smooth="yes"/>
      <point x="609" y="-20"/>
      <point x="687" y="63"/>
      <point x="687" y="219" type="curve"/>
      <point x="687" y="800" type="line"/>
      <point x="570" y="800" type="line"/>
      <point x="570" y="778" type="line"/>
      <point x="663" y="739" type="line"/>
      <point x="663" y="219" type="line" smooth="yes"/>
      <point x="663" y="73"/>
      <point x="580" y="16"/>
      <point x="451" y="16" type="curve" smooth="yes"/>
      <point x="298" y="16"/>
      <point x="229" y="91"/>
      <point x="229" y="219" type="curve" smooth="yes"/>
      <point x="229" y="764" type="line"/>
      <point x="321" y="778" type="line"/>
      <point x="321" y="800" type="line"/>
      <point x="27" y="800" type="line"/>
      <point x="27" y="778" type="line"/>
      <point x="119" y="764" type="line"/>
      <point x="119" y="219" type="line" smooth="yes"/>
      <point x="119" y="87"/>
      <point x="194" y="-20"/>
    </contour>
    <component base="horncomb" xOffset="530" yOffset="266"/>
  </outline>
</glyph>
<glyph name="caron" format="2">
  <advance width="361"/>
  <unicode hex="02C7"/>
  <outline>
    <contour>
      <point x="161" y="589" type="line"/>
      <point x="200" y="589" type="line"/>
      <point x="320" y="745" type="line"/>
      <point x="299" y="759" type="line"/>
      <point x="180" y="665" type="line"/>
      <point x="62" y="759" type="line"/>
      <point x="41" y="745" type="line"/>
    </contour>
  </outline>
</glyph>
<glyph name="ring" format="2">
  <advance width="267"/>
  <unicode hex="02DA"/>
  <outline>
    <contour>
      <point x="133" y="575" type="curve" smooth="yes"/>
      <point x="186" y="575"/>
      <point x="228" y="618"/>
      <point x="228" y="670" type="curve" smooth="yes"/>
      <point x="228" y="722"/>
      <point x="186" y="765"/>
      <point x="133" y="765" type="curve" smooth="yes"/>
      <point x="81" y="765"/>
      <point x="39" y="722"/>
      <point x="39" y="670" type="curve" smooth="yes"/>
      <point x="39" y="618"/>
      <point x="81" y="575"/>
    </contour>
    <contour>
      <point x="133" y="608" type="curve" smooth="yes"/>
      <point x="100" y="608"/>
      <point x="71" y="637"/>
      <point x="71" y="670" type="curve" smooth="yes"/>
      <point x="71" y="703"/>
      <point x="100" y="732"/>
      <point x="133" y="732" type="curve" smooth="yes"/>
      <point x="167" y="732"/>
      <point x="196" y="703"/>
      <point x="196" y="670" type="curve" smooth="yes"/>
      <point x="196" y="637"/>
      <point x="167" y="608"/>
    </contour>
  </outline>
</glyph>
<glyph name="tilde" format="2">
  <advance width="455"/>
  <unicode hex="02DC"/>
  <outline>
    <contour>
      <point x="291" y="602" type="curve" smooth="yes"/>
      <point x="393" y="602"/>
      <point x="416" y="711"/>
      <point x="416" y="711" type="curve"/>
      <point x="389" y="715" type="line"/>
      <point x="377" y="682"/>
      <point x="357" y="666"/>
      <point x="332" y="666" type="curve" smooth="yes"/>
      <point x="277" y="666"/>
      <point x="226" y="737"/>
      <point x="154" y="737" type="curve" smooth="yes"/>
      <point x="52" y="737"/>
      <point x="29" y="628"/>
      <point x="29" y="628" type="curve"/>
      <point x="56" y="624" type="line"/>
      <point x="68" y="657"/>
      <point x="88" y="673"/>
      <point x="113" y="673" type="curve" smooth="yes"/>
      <point x="168" y="673"/>
      <point x="219" y="602"/>
    </contour>
  </outline>
</glyph>
<glyph name="hookabovecomb" format="2">
  <unicode hex="0309"/>
  <anchor x="259" y="518" name="_top"/>
  <anchor x="259" y="765" name="top"/>
  <outline>
    <contour>
      <point x="263" y="565" type="curve"/>
      <point x="281" y="565" type="line"/>
      <point x="281" y="601"/>
      <point x="365" y="590"/>
      <point x="365" y="669" type="curve" smooth="yes"/>
      <point x="365" y="732"/>
      <point x="330" y="765"/>
      <point x="258" y="765" type="curve" smooth="yes"/>
      <point x="181" y="765"/>
      <point x="153" y="722"/>
      <point x="153" y="677" type="curve" smooth="yes"/>
      <point x="153" y="654"/>
      <point x="169" y="642"/>
      <point x="185" y="642" type="curve" smooth="yes"/>
      <point x="200" y="642"/>
      <point x="226" y="651"/>
      <point x="226" y="672" type="curve"/>
      <point x="212" y="679"/>
      <point x="205" y="690"/>
      <point x="205" y="704" type="curve" smooth="yes"/>
      <point x="205" y="728"/>
      <point x="231" y="743"/>
      <point x="257" y="743" type="curve" smooth="yes"/>
      <point x="283" y="743"/>
      <point x="303" y="728"/>
      <point x="303" y="667" type="curve" smooth="yes"/>
      <point x="303" y="598"/>
      <point x="263" y="601"/>
    </contour>
  </outline>
</glyph>
<glyph name="horncomb" format="2">
  <unicode hex="031B"/>
  <anchor x="136" y="689" name="_bottom"/>
  <anchor x="219" y="518" name="_topright"/>
  <anchor x="147" y="395" name="bottom"/>
  <anchor x="219" y="518" name="topright"/>
  <outline>
    <contour>
      <point x="115" y="501" type="line"/>
      <point x="183" y="477"/>
      <point x="243" y="484"/>
      <point x="295" y="534" type="curve" smooth="yes"/>
      <point x="334" y="572"/>
      <point x="336" y="646"/>
      <point x="270" y="646" type="curve" smooth="yes"/>
      <point x="210" y="646"/>
      <point x="198" y="607"/>
      <point x="217" y="580" type="curve" smooth="yes"/>
      <point x="224" y="570"/>
      <point x="233" y="552"/>
      <point x="224" y="543" type="curve" smooth="yes"/>
      <point x="203" y="522"/>
      <point x="163" y="509"/>
      <point x="119" y="522" type="curve"/>
    </contour>
  </outline>
</glyph>
<glyph name="strokeshortcomb" format="2">
  <unicode hex="0335"/>
  <anchor x="158" y="244" name="_center"/>
  <outline>
    <contour>
      <point x="23" y="227" type="line"/>
      <point x="292" y="227" type="line"/>
      <point x="292" y="260" type="line"/>
      <point x="23" y="260" type="line"/>
    </contour>
  </outline>
</glyph>
<glyph name="Nje-cy" format="2">
  <advance width="1200"/>
  <unicode hex="040A"/>
  <outline>
    <contour>
      <point x="40" y="0" type="line"/>
      <point x="334" y="0" type="line"/>
      <point x="334" y="21" type="line"/>
      <point x="242" y="36" type="line"/>
      <point x="242" y="411" type="line"/>
      <point x="622" y="411" type="line"/>
      <point x="622" y="36" type="line"/>
      <point x="530" y="22" type="line"/>
      <point x="530" y="0" type="line"/>
      <point x="874" y="0" type="line" smooth="yes"/>
      <point x="1069" y="0"/>
      <point x="1166" y="70"/>
      <point x="1166" y="220" type="curve" smooth="yes"/>
      <point x="1166" y="367"/>
      <point x="1069" y="436"/>
      <point x="874" y="436" type="curve" smooth="yes"/>
      <point x="732" y="436" type="line"/>
      <point x="732" y="764" type="line"/>
      <point x="824" y="779" type="line"/>
      <point x="824" y="800" type="line"/>
      <point x="530" y="800" type="line"/>
      <point x="530" y="779" type="line"/>
      <point x="622" y="764" type="line"/>
      <point x="622" y="436" type="line"/>
      <point x="242" y="436" type="line"/>
      <point x="242" y="764" type="line"/>
      <point x="334" y="778" type="line"/>
      <point x="334" y="800" type="line"/>
      <point x="40" y="800" type="line"/>
      <point x="40" y="778" type="line"/>
      <point x="132" y="764" type="line"/>
      <point x="132" y="36" type="line"/>
      <point x="40" y="21" type="line"/>
    </contour>
    <contour>
      <point x="732" y="25" type="line"/>
      <point x="732" y="411" type="line"/>
      <point x="860" y="411" type="line" smooth="yes"/>
      <point x="983" y="411"/>
      <point x="1045" y="357"/>
      <point x="1045" y="240" type="curve" smooth="yes"/>
      <point x="1045" y="200" type="line" smooth="yes"/>
      <point x="1045" y="80"/>
      <point x="983" y="25"/>
      <point x="860" y="25" type="curve" smooth="yes"/>
    </contour>
  </outline>
</glyph>
<glyph name="Tshe-cy" format="2">
  <advance width="934"/>
  <unicode hex="040B"/>
  <outline>
    <contour>
      <point x="184" y="0" type="line"/>
      <point x="478" y="0" type="line"/>
      <point x="478" y="21" type="line"/>
      <point x="386" y="36" type="line"/>
      <point x="386" y="775" type="line"/>
      <point x="532" y="775" type="line"/>
      <point x="607" y="577" type="line"/>
      <point x="637" y="577" type="line"/>
      <point x="637" y="800" type="line"/>
      <point x="25" y="800" type="line"/>
      <point x="25" y="577" type="line"/>
      <point x="54" y="577" type="line"/>
      <point x="130" y="775" type="line"/>
      <point x="276" y="775" type="line"/>
      <point x="276" y="36" type="line"/>
      <point x="184" y="21" type="line"/>
    </contour>
    <contour>
      <point x="624" y="0" type="line"/>
      <point x="918" y="0" type="line"/>
      <point x="918" y="22" type="line"/>
      <point x="826" y="36" type="line"/>
      <point x="826" y="258" type="line" smooth="yes"/>
      <point x="826" y="389"/>
      <point x="770" y="448"/>
      <point x="581" y="448" type="curve" smooth="yes"/>
      <point x="464" y="448"/>
      <point x="386" y="407"/>
      <point x="386" y="407" type="curve"/>
      <point x="386" y="381" type="line"/>
      <point x="386" y="381"/>
      <point x="458" y="425"/>
      <point x="581" y="425" type="curve" smooth="yes"/>
      <point x="679" y="425"/>
      <point x="716" y="368"/>
      <point x="716" y="256" type="curve" smooth="yes"/>
      <point x="716" y="36" type="line"/>
      <point x="624" y="22" type="line"/>
    </contour>
  </outline>
</glyph>
<glyph name="Dzhe-cy" format="2">
  <advance width="855"/>
  <unicode hex="040F"/>
  <outline>
    <contour>
      <point x="40" y="0" type="line"/>
      <point x="815" y="0" type="line"/>
      <point x="815" y="22" type="line"/>
      <point x="722" y="36" type="line"/>
      <point x="722" y="764" type="line"/>
      <point x="815" y="779" type="line"/>
      <point x="815" y="800" type="line"/>
      <point x="519" y="800" type="line"/>
      <point x="519" y="779" type="line"/>
      <point x="612" y="764" type="line"/>
      <point x="612" y="25" type="line"/>
      <point x="242" y="25" type="line"/>
      <point x="242" y="764" type="line"/>
      <point x="334" y="779" type="line"/>
      <point x="334" y="800" type="line"/>
      <point x="40" y="800" type="line"/>
      <point x="40" y="779" type="line"/>
      <point x="132" y="764" type="line"/>
      <point x="132" y="36" type="line"/>
      <point x="40" y="22" type="line"/>
    </contour>
    <contour>
      <point x="412" y="-220" type="line"/>
      <point x="443" y="-220" type="line"/>
      <point x="493" y="15" type="line"/>
      <point x="362" y="15" type="line"/>
    </contour>
  </outline>
</glyph>
<glyph name="Ze-cy" format="2">
  <advance width="676"/>
  <unicode hex="0417"/>
  <anchor x="327" y="800" name="top"/>
  <outline>
    <contour>
      <point x="336" y="-20" type="curve" smooth="yes"/>
      <point x="527" y="-20"/>
      <point x="622" y="59"/>
      <point x="622" y="206" type="curve" smooth="yes"/>
      <point x="622" y="316"/>
      <point x="564" y="398"/>
      <point x="401" y="423" type="curve"/>
      <point x="533" y="440"/>
      <point x="590" y="521"/>
      <point x="590" y="613" type="curve" smooth="yes"/>
      <point x="590" y="734"/>
      <point x="520" y="820"/>
      <point x="327" y="820" type="curve" smooth="yes"/>
      <point x="232" y="820"/>
      <point x="170" y="774"/>
      <point x="170" y="774" type="curve"/>
      <point x="103" y="820" type="line"/>
      <point x="82" y="820" type="line"/>
      <point x="82" y="572" type="line"/>
      <point x="103" y="572" type="line"/>
      <point x="165" y="740" type="line"/>
      <point x="165" y="740"/>
      <point x="216" y="797"/>
      <point x="326" y="797" type="curve" smooth="yes"/>
      <point x="415" y="797"/>
      <point x="470" y="740"/>
      <point x="470" y="611" type="curve" smooth="yes"/>
      <point x="470" y="605" type="line" smooth="yes"/>
      <point x="470" y="494"/>
      <point x="420" y="431"/>
      <point x="311" y="431" type="curve" smooth="yes"/>
      <point x="239" y="431" type="line"/>
      <point x="239" y="409" type="line"/>
      <point x="311" y="409" type="line" smooth="yes"/>
      <point x="448" y="409"/>
      <point x="503" y="337"/>
      <point x="503" y="216" type="curve" smooth="yes"/>
      <point x="503" y="205" type="line" smooth="yes"/>
      <point x="503" y="82"/>
      <point x="453" y="3"/>
      <point x="336" y="3" type="curve" smooth="yes"/>
      <point x="206" y="3"/>
      <point x="142" y="80"/>
      <point x="142" y="80" type="curve"/>
      <point x="84" y="247" type="line"/>
      <point x="63" y="247" type="line"/>
      <point x="63" y="-10" type="line"/>
      <point x="84" y="-10" type="line"/>
      <point x="150" y="41" type="line"/>
      <point x="150" y="41"/>
      <point x="224" y="-20"/>
    </contour>
  </outline>
</glyph>
<glyph name="Ii-cy" format="2">
  <advance width="865"/>
  <unicode hex="0418"/>
  <anchor x="433" y="800" name="top"/>
  <outline>
    <contour>
      <point x="35" y="0" type="line"/>
      <point x="329" y="0" type="line"/>
      <point x="329" y="21" type="line"/>
      <point x="237" y="36" type="line"/>
      <point x="237" y="69" type="line"/>
      <point x="627" y="689" type="line"/>
      <point x="627" y="36" type="line"/>
      <point x="534" y="21" type="line"/>
      <point x="534" y="0" type="line"/>
      <point x="830" y="0" type="line"/>
      <point x="830" y="21" type="line"/>
      <point x="737" y="36" type="line"/>
      <point x="737" y="764" type="line"/>
      <point x="830" y="778" type="line"/>
      <point x="830" y="800" type="line"/>
      <point x="534" y="800" type="line"/>
      <point x="534" y="778" type="line"/>
      <point x="627" y="764" type="line"/>
      <point x="627" y="736" type="line"/>
      <point x="237" y="116" type="line"/>
      <point x="237" y="764" type="line"/>
      <point x="329" y="778" type="line"/>
      <point x="329" y="800" type="line"/>
      <point x="35" y="800" type="line"/>
      <point x="35" y="778" type="line"/>
      <point x="127" y="764" type="line"/>
      <point x="127" y="36" type="line"/>
      <point x="35" y="21" type="line"/>
    </contour>
  </outline>
</glyph>
<glyph name="El-cy" format="2">
  <advance width="766"/>
  <unicode hex="041B"/>
  <outline>
    <contour>
      <point x="86" y="-10" type="curve" smooth="yes"/>
      <point x="227" y="-10"/>
      <point x="252" y="164"/>
      <point x="270" y="570" type="curve" smooth="yes"/>
      <point x="279" y="775" type="line"/>
      <point x="523" y="775" type="line"/>
      <point x="523" y="36" type="line"/>
      <point x="430" y="21" type="line"/>
      <point x="430" y="0" type="line"/>
      <point x="726" y="0" type="line"/>
      <point x="726" y="21" type="line"/>
      <point x="633" y="36" type="line"/>
      <point x="633" y="764" type="line"/>
      <point x="726" y="778" type="line"/>
      <point x="726" y="800" type="line"/>
      <point x="144" y="800" type="line"/>
      <point x="144" y="777" type="line"/>
      <point x="250" y="733" type="line"/>
      <point x="243" y="571" type="line" smooth="yes"/>
      <point x="226" y="166"/>
      <point x="188" y="41"/>
      <point x="124" y="41" type="curve" smooth="yes"/>
      <point x="106" y="41"/>
      <point x="96" y="54"/>
      <point x="96" y="69" type="curve" smooth="yes"/>
      <point x="96" y="80"/>
      <point x="102" y="92"/>
      <point x="114" y="100" type="curve"/>
      <point x="114" y="100"/>
      <point x="100" y="133"/>
      <point x="59" y="133" type="curve" smooth="yes"/>
      <point x="16" y="133"/>
      <point x="-7" y="101"/>
      <point x="-7" y="68" type="curve" smooth="yes"/>
      <point x="-7" y="30"/>
      <point x="16" y="-10"/>
    </contour>
  </outline>
</glyph>
<glyph name="U-cy" format="2">
  <advance width="726"/>
  <unicode hex="0423"/>
  <anchor x="397" y="800" name="top"/>
  <outline>
    <contour>
      <point x="215" y="-10" type="curve" smooth="yes"/>
      <point x="298" y="-10"/>
      <point x="340" y="23"/>
      <point x="393" y="141" type="curve" smooth="yes"/>
      <point x="657" y="729" type="line"/>
      <point x="734" y="778" type="line"/>
      <point x="734" y="800" type="line"/>
      <point x="510" y="800" type="line"/>
      <point x="510" y="778" type="line"/>
      <point x="630" y="730" type="line"/>
      <point x="441" y="308" type="line"/>
      <point x="187" y="764" type="line"/>
      <point x="280" y="778" type="line"/>
      <point x="280" y="800" type="line"/>
      <point x="-21" y="800" type="line"/>
      <point x="-21" y="778" type="line"/>
      <point x="58" y="764" type="line"/>
      <point x="383" y="180" type="line"/>
      <point x="370" y="150" type="line" smooth="yes"/>
      <point x="328" y="57"/>
      <point x="303" y="35"/>
      <point x="270" y="35" type="curve" smooth="yes"/>
      <point x="245" y="35"/>
      <point x="232" y="53"/>
      <point x="232" y="77" type="curve" smooth="yes"/>
      <point x="232" y="106"/>
      <point x="251" y="123"/>
      <point x="251" y="123" type="curve"/>
      <point x="239" y="146"/>
      <point x="216" y="159"/>
      <point x="186" y="159" type="curve" smooth="yes"/>
      <point x="148" y="159"/>
      <point x="114" y="129"/>
      <point x="114" y="82" type="curve" smooth="yes"/>
      <point x="114" y="30"/>
      <point x="149" y="-10"/>
    </contour>
  </outline>
</glyph>
<glyph name="Ef-cy" format="2">
  <advance width="946"/>
  <unicode hex="0424"/>
  <outline>
    <contour>
      <point x="326" y="0" type="line"/>
      <point x="620" y="0" type="line"/>
      <point x="620" y="21" type="line"/>
      <point x="528" y="36" type="line"/>
      <point x="528" y="140" type="line"/>
      <point x="789" y="141"/>
      <point x="904" y="235"/>
      <point x="904" y="420" type="curve" smooth="yes"/>
      <point x="904" y="607"/>
      <point x="788" y="700"/>
      <point x="528" y="700" type="curve"/>
      <point x="528" y="784" type="line"/>
      <point x="620" y="798" type="line"/>
      <point x="620" y="820" type="line"/>
      <point x="326" y="820" type="line"/>
      <point x="326" y="798" type="line"/>
      <point x="418" y="784" type="line"/>
      <point x="418" y="700" type="line"/>
      <point x="158" y="700"/>
      <point x="42" y="607"/>
      <point x="42" y="420" type="curve" smooth="yes"/>
      <point x="42" y="235"/>
      <point x="157" y="141"/>
      <point x="418" y="140" type="curve"/>
      <point x="418" y="36" type="line"/>
      <point x="326" y="21" type="line"/>
    </contour>
    <contour>
      <point x="418" y="163" type="line"/>
      <point x="252" y="164"/>
      <point x="166" y="256"/>
      <point x="166" y="393" type="curve" smooth="yes"/>
      <point x="166" y="447" type="line" smooth="yes"/>
      <point x="166" y="583"/>
      <point x="251" y="677"/>
      <point x="418" y="677" type="curve"/>
    </contour>
    <contour>
      <point x="528" y="163" type="curve"/>
      <point x="528" y="677" type="line"/>
      <point x="695" y="677"/>
      <point x="780" y="583"/>
      <point x="780" y="447" type="curve" smooth="yes"/>
      <point x="780" y="393" type="line" smooth="yes"/>
      <point x="780" y="256"/>
      <point x="694" y="164"/>
    </contour>
  </outline>
</glyph>
<glyph name="Hardsign-cy" format="2">
  <advance width="855"/>
  <unicode hex="042A"/>
  <outline>
    <contour>
      <point x="185" y="0" type="line"/>
      <point x="529" y="0" type="line" smooth="yes"/>
      <point x="724" y="0"/>
      <point x="821" y="72"/>
      <point x="821" y="225" type="curve" smooth="yes"/>
      <point x="821" y="378"/>
      <point x="724" y="450"/>
      <point x="529" y="450" type="curve" smooth="yes"/>
      <point x="387" y="450" type="line"/>
      <point x="387" y="764" type="line"/>
      <point x="479" y="779" type="line"/>
      <point x="479" y="800" type="line"/>
      <point x="228" y="800" type="line"/>
      <point x="228" y="775" type="line"/>
      <point x="277" y="775" type="line"/>
      <point x="277" y="36" type="line"/>
      <point x="185" y="22" type="line"/>
    </contour>
    <contour>
      <point x="387" y="25" type="line"/>
      <point x="387" y="426" type="line"/>
      <point x="515" y="426" type="line" smooth="yes"/>
      <point x="638" y="426"/>
      <point x="700" y="369"/>
      <point x="700" y="245" type="curve" smooth="yes"/>
      <point x="700" y="205" type="line" smooth="yes"/>
      <point x="700" y="82"/>
      <point x="638" y="25"/>
      <point x="515" y="25" type="curve" smooth="yes"/>
    </contour>
    <contour>
      <point x="15" y="577" type="line"/>
      <point x="44" y="577" type="line"/>
      <point x="120" y="775" type="line"/>
      <point x="228" y="775" type="line"/>
      <point x="228" y="800" type="line"/>
      <point x="15" y="800" type="line"/>
    </contour>
  </outline>
</glyph>
<glyph name="Yeru-cy" format="2">
  <advance width="1034"/>
  <unicode hex="042B"/>
  <anchor x="512" y="800" name="top"/>
  <outline>
    <contour>
      <point x="40" y="0" type="line"/>
      <point x="371" y="0" type="line" smooth="yes"/>
      <point x="566" y="0"/>
      <point x="663" y="72"/>
      <point x="663" y="225" type="curve" smooth="yes"/>
      <point x="663" y="378"/>
      <point x="566" y="450"/>
      <point x="371" y="450" type="curve" smooth="yes"/>
      <point x="242" y="450" type="line"/>
      <point x="242" y="764" type="line"/>
      <point x="334" y="779" type="line"/>
      <point x="334" y="800" type="line"/>
      <point x="40" y="800" type="line"/>
      <point x="40" y="779" type="line"/>
      <point x="132" y="764" type="line"/>
      <point x="132" y="36" type="line"/>
      <point x="40" y="22" type="line"/>
    </contour>
    <contour>
      <point x="242" y="25" type="line"/>
      <point x="242" y="426" type="line"/>
      <point x="357" y="426" type="line" smooth="yes"/>
      <point x="480" y="426"/>
      <point x="542" y="369"/>
      <point x="542" y="245" type="curve" smooth="yes"/>
      <point x="542" y="205" type="line" smooth="yes"/>
      <point x="542" y="82"/>
      <point x="480" y="25"/>
      <point x="357" y="25" type="curve" smooth="yes"/>
    </contour>
    <contour>
      <point x="700" y="0" type="line"/>
      <point x="994" y="0" type="line"/>
      <point x="994" y="21" type="line"/>
      <point x="902" y="36" type="line"/>
      <point x="902" y="764" type="line"/>
      <point x="994" y="778" type="line"/>
      <point x="994" y="800" type="line"/>
      <point x="700" y="800" type="line"/>
      <point x="700" y="778" type="line"/>
      <point x="792" y="764" type="line"/>
      <point x="792" y="36" type="line"/>
      <point x="700" y="21" type="line"/>
    </contour>
  </outline>
</glyph>
<glyph name="Ereversed-cy" format="2">
  <advance width="745"/>
  <unicode hex="042D"/>
  <outline>
    <contour>
      <point x="329" y="-20" type="curve" smooth="yes"/>
      <point x="549" y="-20"/>
      <point x="691" y="150"/>
      <point x="691" y="400" type="curve" smooth="yes"/>
      <point x="691" y="647"/>
      <point x="546" y="820"/>
      <point x="326" y="820" type="curve" smooth="yes"/>
      <point x="266" y="820"/>
      <point x="208" y="801"/>
      <point x="156" y="763" type="curve"/>
      <point x="89" y="820" type="line"/>
      <point x="68" y="820" type="line"/>
      <point x="68" y="572" type="line"/>
      <point x="89" y="572" type="line"/>
      <point x="151" y="727" type="line"/>
      <point x="202" y="774"/>
      <point x="261" y="797"/>
      <point x="326" y="797" type="curve" smooth="yes"/>
      <point x="467" y="797"/>
      <point x="561" y="681"/>
      <point x="561" y="492" type="curve" smooth="yes"/>
      <point x="561" y="425" type="line"/>
      <point x="201" y="425" type="line"/>
      <point x="201" y="401" type="line"/>
      <point x="561" y="401" type="line"/>
      <point x="561" y="309" type="line" smooth="yes"/>
      <point x="561" y="118"/>
      <point x="470" y="3"/>
      <point x="329" y="3" type="curve" smooth="yes"/>
      <point x="261" y="3"/>
      <point x="187" y="35"/>
      <point x="142" y="86" type="curve"/>
      <point x="84" y="247" type="line"/>
      <point x="63" y="247" type="line"/>
      <point x="63" y="-10" type="line"/>
      <point x="84" y="-10" type="line"/>
      <point x="154" y="41" type="line"/>
      <point x="207" y="0"/>
      <point x="265" y="-20"/>
    </contour>
  </outline>
</glyph>
<glyph name="Iu-cy" format="2">
  <advance width="1187"/>
  <unicode hex="042E"/>
  <outline>
    <contour>
      <point x="760" y="-20" type="curve" smooth="yes"/>
      <point x="980" y="-20"/>
      <point x="1133" y="155"/>
      <point x="1133" y="400" type="curve" smooth="yes"/>
      <point x="1133" y="647"/>
      <point x="978" y="820"/>
      <point x="760" y="820" type="curve" smooth="yes"/>
      <point x="550" y="820"/>
      <point x="398" y="661"/>
      <point x="387" y="426" type="curve"/>
      <point x="242" y="426" type="line"/>
      <point x="242" y="764" type="line"/>
      <point x="334" y="778" type="line"/>
      <point x="334" y="800" type="line"/>
      <point x="40" y="800" type="line"/>
      <point x="40" y="778" type="line"/>
      <point x="132" y="764" type="line"/>
      <point x="132" y="36" type="line"/>
      <point x="40" y="21" type="line"/>
      <point x="40" y="0" type="line"/>
      <point x="334" y="0" type="line"/>
      <point x="334" y="21" type="line"/>
      <point x="242" y="36" type="line"/>
      <point x="242" y="401" type="line"/>
      <point x="387" y="401" type="line"/>
      <point x="387" y="400" type="line"/>
      <point x="387" y="153"/>
      <point x="542" y="-20"/>
    </contour>
    <contour>
      <point x="760" y="3" type="curve" smooth="yes"/>
      <point x="614" y="3"/>
      <point x="511" y="125"/>
      <point x="511" y="323" type="curve" smooth="yes"/>
      <point x="511" y="477" type="line" smooth="yes"/>
      <point x="511" y="673"/>
      <point x="615" y="797"/>
      <point x="760" y="797" type="curve" smooth="yes"/>
      <point x="905" y="797"/>
      <point x="1009" y="673"/>
      <point x="1009" y="477" type="curve" smooth="yes"/>
      <point x="1009" y="323" type="line"/>
      <point x="1009" y="125"/>
      <point x="906" y="3"/>
    </contour>
  </outline>
</glyph>
<glyph name="Ia-cy" format="2">
  <advance width="727"/>
  <unicode hex="042F"/>
  <outline>
    <contour>
      <point x="106" y="-10" type="curve" smooth="yes"/>
      <point x="181" y="-10"/>
      <point x="215" y="22"/>
      <point x="228" y="109" type="curve" smooth="yes"/>
      <point x="247" y="243" type="line" smooth="yes"/>
      <point x="261" y="340"/>
      <point x="314" y="377"/>
      <point x="407" y="377" type="curve" smooth="yes"/>
      <point x="485" y="377" type="line"/>
      <point x="485" y="36" type="line"/>
      <point x="393" y="21" type="line"/>
      <point x="393" y="0" type="line"/>
      <point x="687" y="0" type="line"/>
      <point x="687" y="21" type="line"/>
      <point x="595" y="36" type="line"/>
      <point x="595" y="764" type="line"/>
      <point x="687" y="778" type="line"/>
      <point x="687" y="800" type="line"/>
      <point x="412" y="800" type="line" smooth="yes"/>
      <point x="192" y="800"/>
      <point x="97" y="730"/>
      <point x="97" y="588" type="curve" smooth="yes"/>
      <point x="97" y="470"/>
      <point x="170" y="406"/>
      <point x="306" y="388" type="curve"/>
      <point x="306" y="382" type="line"/>
      <point x="198" y="367"/>
      <point x="142" y="327"/>
      <point x="126" y="227" type="curve" smooth="yes"/>
      <point x="111" y="131" type="line" smooth="yes"/>
      <point x="101" y="64"/>
      <point x="91" y="41"/>
      <point x="68" y="36" type="curve" smooth="yes"/>
      <point x="45" y="32"/>
      <point x="21" y="43"/>
      <point x="-4" y="69" type="curve"/>
      <point x="-21" y="51" type="line"/>
      <point x="15" y="10"/>
      <point x="57" y="-10"/>
    </contour>
    <contour>
      <point x="378" y="401" type="line" smooth="yes"/>
      <point x="281" y="401"/>
      <point x="218" y="461"/>
      <point x="218" y="577" type="curve" smooth="yes"/>
      <point x="218" y="609" type="line" smooth="yes"/>
      <point x="218" y="720"/>
      <point x="284" y="775"/>
      <point x="412" y="775" type="curve" smooth="yes"/>
      <point x="485" y="775" type="line"/>
      <point x="485" y="401" type="line"/>
    </contour>
  </outline>
</glyph>
<glyph name="be-cy" format="2">
  <advance width="610"/>
  <unicode hex="0431"/>
  <outline>
    <contour>
      <point x="318" y="-10" type="curve" smooth="yes"/>
      <point x="452" y="-10"/>
      <point x="567" y="93"/>
      <point x="567" y="254" type="curve" smooth="yes"/>
      <point x="567" y="415"/>
      <point x="452" y="518"/>
      <point x="318" y="518" type="curve" smooth="yes"/>
      <point x="207" y="518"/>
      <point x="115" y="448"/>
      <point x="86" y="333" type="curve"/>
      <point x="80" y="333" type="line"/>
      <point x="80" y="573"/>
      <point x="196" y="630"/>
      <point x="318" y="630" type="curve" smooth="yes"/>
      <point x="400" y="630" type="line" smooth="yes"/>
      <point x="501" y="630"/>
      <point x="537" y="675"/>
      <point x="537" y="800" type="curve"/>
      <point x="513" y="800" type="line"/>
      <point x="513" y="754"/>
      <point x="483" y="730"/>
      <point x="415" y="730" type="curve" smooth="yes"/>
      <point x="335" y="730" type="line" smooth="yes"/>
      <point x="157" y="730"/>
      <point x="50" y="594"/>
      <point x="50" y="333" type="curve" smooth="yes"/>
      <point x="50" y="87"/>
      <point x="171" y="-10"/>
    </contour>
    <contour>
      <point x="318" y="14" type="curve" smooth="yes"/>
      <point x="222" y="14"/>
      <point x="179" y="91"/>
      <point x="179" y="204" type="curve" smooth="yes"/>
      <point x="179" y="304" type="line" smooth="yes"/>
      <point x="179" y="417"/>
      <point x="222" y="494"/>
      <point x="318" y="494" type="curve" smooth="yes"/>
      <point x="414" y="494"/>
      <point x="457" y="417"/>
      <point x="457" y="304" type="curve" smooth="yes"/>
      <point x="457" y="204" type="line" smooth="yes"/>
      <point x="457" y="91"/>
      <point x="414" y="14"/>
    </contour>
  </outline>
</glyph>
<glyph name="ve-cy" format="2">
  <advance width="563"/>
  <unicode hex="0432"/>
  <outline>
    <contour>
      <point x="27" y="0" type="line"/>
      <point x="333" y="0" type="line" smooth="yes"/>
      <point x="451" y="0"/>
      <point x="526" y="45"/>
      <point x="526" y="140" type="curve" smooth="yes"/>
      <point x="526" y="216"/>
      <point x="475" y="261"/>
      <point x="374" y="275" type="curve"/>
      <point x="374" y="278" type="line"/>
      <point x="452" y="295"/>
      <point x="492" y="335"/>
      <point x="492" y="397" type="curve" smooth="yes"/>
      <point x="492" y="482"/>
      <point x="439" y="518"/>
      <point x="301" y="518" type="curve" smooth="yes"/>
      <point x="27" y="518" type="line"/>
      <point x="27" y="498" type="line"/>
      <point x="97" y="488" type="line"/>
      <point x="97" y="30" type="line"/>
      <point x="27" y="20" type="line"/>
    </contour>
    <contour>
      <point x="197" y="25" type="line"/>
      <point x="197" y="260" type="line"/>
      <point x="303" y="260" type="line" smooth="yes"/>
      <point x="377" y="260"/>
      <point x="418" y="223"/>
      <point x="418" y="146" type="curve" smooth="yes"/>
      <point x="418" y="139" type="line" smooth="yes"/>
      <point x="418" y="64"/>
      <point x="376" y="25"/>
      <point x="303" y="25" type="curve" smooth="yes"/>
    </contour>
    <contour>
      <point x="197" y="284" type="line"/>
      <point x="197" y="493" type="line"/>
      <point x="271" y="493" type="line" smooth="yes"/>
      <point x="347" y="493"/>
      <point x="384" y="462"/>
      <point x="384" y="396" type="curve" smooth="yes"/>
      <point x="384" y="392" type="line" smooth="yes"/>
      <point x="384" y="320"/>
      <point x="346" y="284"/>
      <point x="277" y="284" type="curve" smooth="yes"/>
    </contour>
  </outline>
</glyph>
<glyph name="ii-cy" format="2">
  <advance width="647"/>
  <unicode hex="0438"/>
  <anchor x="326" y="518" name="top"/>
  <outline>
    <contour>
      <point x="27" y="0" type="line"/>
      <point x="257" y="0" type="line"/>
      <point x="257" y="20" type="line"/>
      <point x="197" y="30" type="line"/>
      <point x="197" y="56" type="line"/>
      <point x="450" y="426" type="line"/>
      <point x="450" y="30" type="line"/>
      <point x="390" y="20" type="line"/>
      <point x="390" y="0" type="line"/>
      <point x="620" y="0" type="line"/>
      <point x="620" y="20" type="line"/>
      <point x="550" y="30" type="line"/>
      <point x="550" y="488" type="line"/>
      <point x="620" y="498" type="line"/>
      <point x="620" y="518" type="line"/>
      <point x="390" y="518" type="line"/>
      <point x="390" y="498" type="line"/>
      <point x="450" y="488" type="line"/>
      <point x="450" y="468" type="line"/>
      <point x="197" y="99" type="line"/>
      <point x="197" y="488" type="line"/>
      <point x="257" y="498" type="line"/>
      <point x="257" y="518" type="line"/>
      <point x="27" y="518" type="line"/>
      <point x="27" y="498" type="line"/>
      <point x="97" y="488" type="line"/>
      <point x="97" y="30" type="line"/>
      <point x="27" y="20" type="line"/>
    </contour>
  </outline>
</glyph>
<glyph name="ka-cy" format="2">
  <advance width="584"/>
  <unicode hex="043A"/>
  <anchor x="274" y="275" name="center"/>
  <anchor x="304" y="518" name="top"/>
  <outline>
    <contour>
      <point x="493" y="-10" type="curve" smooth="yes"/>
      <point x="525" y="-10"/>
      <point x="563" y="5"/>
      <point x="589" y="35" type="curve"/>
      <point x="574" y="50" type="line"/>
      <point x="561" y="37"/>
      <point x="549" y="32"/>
      <point x="539" y="32" type="curve" smooth="yes"/>
      <point x="519" y="32"/>
      <point x="511" y="43"/>
      <point x="502" y="87" type="curve" smooth="yes"/>
      <point x="485" y="173" type="line" smooth="yes"/>
      <point x="472" y="241"/>
      <point x="438" y="276"/>
      <point x="348" y="284" type="curve"/>
      <point x="364" y="299"/>
      <point x="374" y="322"/>
      <point x="382" y="350" type="curve" smooth="yes"/>
      <point x="401" y="422" type="line" smooth="yes"/>
      <point x="406" y="440"/>
      <point x="416" y="450"/>
      <point x="433" y="450" type="curve" smooth="yes"/>
      <point x="454" y="450"/>
      <point x="468" y="429"/>
      <point x="458" y="402" type="curve"/>
      <point x="514" y="383"/>
      <point x="548" y="419"/>
      <point x="548" y="460" type="curve" smooth="yes"/>
      <point x="548" y="495"/>
      <point x="523" y="527"/>
      <point x="472" y="527" type="curve" smooth="yes"/>
      <point x="410" y="527"/>
      <point x="390" y="487"/>
      <point x="376" y="429" type="curve" smooth="yes"/>
      <point x="358" y="357" type="line" smooth="yes"/>
      <point x="345" y="306"/>
      <point x="326" y="288"/>
      <point x="293" y="286" type="curve"/>
      <point x="199" y="286" type="line"/>
      <point x="199" y="487" type="line"/>
      <point x="271" y="497" type="line"/>
      <point x="271" y="518" type="line"/>
      <point x="27" y="518" type="line"/>
      <point x="27" y="497" type="line"/>
      <point x="99" y="487" type="line"/>
      <point x="99" y="31" type="line"/>
      <point x="27" y="20" type="line"/>
      <point x="27" y="0" type="line"/>
      <point x="271" y="0" type="line"/>
      <point x="271" y="20" type="line"/>
      <point x="199" y="31" type="line"/>
      <point x="199" y="263" type="line"/>
      <point x="287" y="263" type="line"/>
      <point x="288" y="263" type="line"/>
      <point x="292" y="263" type="line" smooth="yes"/>
      <point x="338" y="262"/>
      <point x="366" y="243"/>
      <point x="379" y="177" type="curve" smooth="yes"/>
      <point x="399" y="71" type="line" smooth="yes"/>
      <point x="410" y="14"/>
      <point x="434" y="-10"/>
    </contour>
  </outline>
</glyph>
<glyph name="em-cy" format="2">
  <advance width="753"/>
  <unicode hex="043C"/>
  <outline>
    <contour>
      <point x="27" y="0" type="line"/>
      <point x="204" y="0" type="line"/>
      <point x="204" y="20" type="line"/>
      <point x="128" y="50" type="line"/>
      <point x="128" y="485" type="line"/>
      <point x="337" y="0" type="line"/>
      <point x="349" y="0" type="line"/>
      <point x="556" y="485" type="line"/>
      <point x="556" y="30" type="line"/>
      <point x="496" y="20" type="line"/>
      <point x="496" y="0" type="line"/>
      <point x="726" y="0" type="line"/>
      <point x="726" y="20" type="line"/>
      <point x="656" y="30" type="line"/>
      <point x="656" y="488" type="line"/>
      <point x="726" y="498" type="line"/>
      <point x="726" y="518" type="line"/>
      <point x="542" y="518" type="line"/>
      <point x="385" y="144" type="line"/>
      <point x="227" y="518" type="line"/>
      <point x="33" y="518" type="line"/>
      <point x="33" y="498" type="line"/>
      <point x="103" y="489" type="line"/>
      <point x="103" y="50" type="line"/>
      <point x="27" y="20" type="line"/>
    </contour>
  </outline>
</glyph>
<glyph name="te-cy" format="2">
  <advance width="544"/>
  <unicode hex="0442"/>
  <outline>
    <contour>
      <point x="142" y="0" type="line"/>
      <point x="402" y="0" type="line"/>
      <point x="402" y="20" type="line"/>
      <point x="322" y="30" type="line"/>
      <point x="322" y="493" type="line"/>
      <point x="407" y="493" type="line"/>
      <point x="495" y="328" type="line"/>
      <point x="523" y="328" type="line"/>
      <point x="508" y="518" type="line"/>
      <point x="36" y="518" type="line"/>
      <point x="21" y="328" type="line"/>
      <point x="49" y="328" type="line"/>
      <point x="136" y="493" type="line"/>
      <point x="222" y="493" type="line"/>
      <point x="222" y="30" type="line"/>
      <point x="142" y="20" type="line"/>
    </contour>
  </outline>
</glyph>
<glyph name="sha-cy" format="2">
  <advance width="884"/>
  <unicode hex="0448"/>
  <outline>
    <contour>
      <point x="27" y="0" type="line"/>
      <point x="857" y="0" type="line"/>
      <point x="857" y="20" type="line"/>
      <point x="787" y="30" type="line"/>
      <point x="787" y="488" type="line"/>
      <point x="857" y="498" type="line"/>
      <point x="857" y="518" type="line"/>
      <point x="617" y="518" type="line"/>
      <point x="617" y="498" type="line"/>
      <point x="687" y="488" type="line"/>
      <point x="687" y="25" type="line"/>
      <point x="492" y="25" type="line"/>
      <point x="492" y="488" type="line"/>
      <point x="562" y="498" type="line"/>
      <point x="562" y="518" type="line"/>
      <point x="322" y="518" type="line"/>
      <point x="322" y="498" type="line"/>
      <point x="392" y="488" type="line"/>
      <point x="392" y="25" type="line"/>
      <point x="197" y="25" type="line"/>
      <point x="197" y="488" type="line"/>
      <point x="267" y="498" type="line"/>
      <point x="267" y="518" type="line"/>
      <point x="27" y="518" type="line"/>
      <point x="27" y="498" type="line"/>
      <point x="97" y="488" type="line"/>
      <point x="97" y="30" type="line"/>
      <point x="27" y="20" type="line"/>
    </contour>
  </outline>
</glyph>
<glyph name="hardsign-cy" format="2">
  <advance width="652"/>
  <unicode hex="044A"/>
  <outline>
    <contour>
      <point x="147" y="0" type="line"/>
      <point x="443" y="0" type="line" smooth="yes"/>
      <point x="561" y="0"/>
      <point x="636" y="50"/>
      <point x="636" y="150" type="curve" smooth="yes"/>
      <point x="636" y="250"/>
      <point x="561" y="300"/>
      <point x="443" y="300" type="curve" smooth="yes"/>
      <point x="317" y="300" type="line"/>
      <point x="317" y="488" type="line"/>
      <point x="387" y="498" type="line"/>
      <point x="387" y="518" type="line"/>
      <point x="36" y="518" type="line"/>
      <point x="21" y="328" type="line"/>
      <point x="49" y="328" type="line"/>
      <point x="136" y="493" type="line"/>
      <point x="217" y="493" type="line"/>
      <point x="217" y="30" type="line"/>
      <point x="147" y="20" type="line"/>
    </contour>
    <contour>
      <point x="317" y="25" type="line"/>
      <point x="317" y="275" type="line"/>
      <point x="413" y="275" type="line" smooth="yes"/>
      <point x="486" y="275"/>
      <point x="528" y="231"/>
      <point x="528" y="151" type="curve" smooth="yes"/>
      <point x="528" y="149" type="line" smooth="yes"/>
      <point x="528" y="69"/>
      <point x="486" y="25"/>
      <point x="413" y="25" type="curve" smooth="yes"/>
    </contour>
  </outline>
</glyph>
<glyph name="softsign-cy" format="2">
  <advance width="542"/>
  <unicode hex="044C"/>
  <outline>
    <contour>
      <point x="27" y="0" type="line"/>
      <point x="333" y="0" type="line" smooth="yes"/>
      <point x="451" y="0"/>
      <point x="526" y="50"/>
      <point x="526" y="150" type="curve" smooth="yes"/>
      <point x="526" y="250"/>
      <point x="451" y="300"/>
      <point x="333" y="300" type="curve" smooth="yes"/>
      <point x="197" y="300" type="line"/>
      <point x="197" y="488" type="line"/>
      <point x="267" y="498" type="line"/>
      <point x="267" y="518" type="line"/>
      <point x="27" y="518" type="line"/>
      <point x="27" y="498" type="line"/>
      <point x="97" y="488" type="line"/>
      <point x="97" y="30" type="line"/>
      <point x="27" y="20" type="line"/>
    </contour>
    <contour>
      <point x="197" y="25" type="line"/>
      <point x="197" y="275" type="line"/>
      <point x="303" y="275" type="line" smooth="yes"/>
      <point x="376" y="275"/>
      <point x="418" y="231"/>
      <point x="418" y="151" type="curve" smooth="yes"/>
      <point x="418" y="149" type="line" smooth="yes"/>
      <point x="418" y="69"/>
      <point x="376" y="25"/>
      <point x="303" y="25" type="curve" smooth="yes"/>
    </contour>
  </outline>
</glyph>
<glyph name="iu-cy" format="2">
  <advance width="853"/>
  <unicode hex="044E"/>
  <outline>
    <contour>
      <point x="551" y="-10" type="curve" smooth="yes"/>
      <point x="698" y="-10"/>
      <point x="810" y="102"/>
      <point x="810" y="259" type="curve" smooth="yes"/>
      <point x="810" y="417"/>
      <point x="697" y="527"/>
      <point x="551" y="527" type="curve" smooth="yes"/>
      <point x="411" y="527"/>
      <point x="300" y="427"/>
      <point x="292" y="275" type="curve"/>
      <point x="197" y="275" type="line"/>
      <point x="197" y="488" type="line"/>
      <point x="257" y="498" type="line"/>
      <point x="257" y="518" type="line"/>
      <point x="27" y="518" type="line"/>
      <point x="27" y="498" type="line"/>
      <point x="97" y="488" type="line"/>
      <point x="97" y="30" type="line"/>
      <point x="27" y="20" type="line"/>
      <point x="27" y="0" type="line"/>
      <point x="257" y="0" type="line"/>
      <point x="257" y="20" type="line"/>
      <point x="197" y="30" type="line"/>
      <point x="197" y="250" type="line"/>
      <point x="292" y="250" type="line"/>
      <point x="294" y="175"/>
      <point x="319" y="113"/>
      <point x="366" y="64" type="curve"/>
      <point x="417" y="15"/>
      <point x="478" y="-10"/>
    </contour>
    <contour>
      <point x="551" y="12" type="curve" smooth="yes"/>
      <point x="452" y="12"/>
      <point x="402" y="90"/>
      <point x="402" y="209" type="curve" smooth="yes"/>
      <point x="402" y="309" type="line" smooth="yes"/>
      <point x="402" y="429"/>
      <point x="451" y="505"/>
      <point x="551" y="505" type="curve" smooth="yes"/>
      <point x="651" y="505"/>
      <point x="700" y="429"/>
      <point x="700" y="309" type="curve" smooth="yes"/>
      <point x="700" y="209" type="line" smooth="yes"/>
      <point x="700" y="90"/>
      <point x="650" y="12"/>
    </contour>
  </outline>
</glyph>
<glyph name="ia-cy" format="2">
  <advance width="583"/>
  <unicode hex="044F"/>
  <outline>
    <contour>
      <point x="86" y="-10" type="curve" smooth="yes"/>
      <point x="145" y="-10"/>
      <point x="169" y="14"/>
      <point x="180" y="71" type="curve" smooth="yes"/>
      <point x="195" y="156" type="line" smooth="yes"/>
      <point x="205" y="215"/>
      <point x="236" y="238"/>
      <point x="292" y="238" type="curve" smooth="yes"/>
      <point x="384" y="238" type="line"/>
      <point x="384" y="31" type="line"/>
      <point x="312" y="20" type="line"/>
      <point x="312" y="0" type="line"/>
      <point x="556" y="0" type="line"/>
      <point x="556" y="20" type="line"/>
      <point x="484" y="31" type="line"/>
      <point x="484" y="487" type="line"/>
      <point x="556" y="497" type="line"/>
      <point x="556" y="518" type="line"/>
      <point x="270" y="518" type="line" smooth="yes"/>
      <point x="132" y="518"/>
      <point x="79" y="469"/>
      <point x="79" y="382" type="curve" smooth="yes"/>
      <point x="79" y="298"/>
      <point x="138" y="265"/>
      <point x="199" y="255" type="curve"/>
      <point x="199" y="250" type="line"/>
      <point x="125" y="239"/>
      <point x="100" y="208"/>
      <point x="88" y="145" type="curve" smooth="yes"/>
      <point x="77" y="87" type="line" smooth="yes"/>
      <point x="68" y="43"/>
      <point x="60" y="32"/>
      <point x="40" y="32" type="curve" smooth="yes"/>
      <point x="30" y="32"/>
      <point x="18" y="37"/>
      <point x="5" y="50" type="curve"/>
      <point x="-10" y="35" type="line"/>
      <point x="16" y="5"/>
      <point x="54" y="-10"/>
    </contour>
    <contour>
      <point x="292" y="263" type="line" smooth="yes"/>
      <point x="231" y="263"/>
      <point x="187" y="293"/>
      <point x="187" y="371" type="curve" smooth="yes"/>
      <point x="187" y="384" type="line" smooth="yes"/>
      <point x="187" y="461"/>
      <point x="224" y="493"/>
      <point x="300" y="493" type="curve" smooth="yes"/>
      <point x="384" y="493" type="line"/>
      <point x="384" y="263" type="line"/>
    </contour>
  </outline>
</glyph>
<glyph name="lje-cy" format="2">
  <advance width="852"/>
  <unicode hex="0459"/>
  <outline>
    <contour>
      <point x="90" y="-10" type="curve" smooth="yes"/>
      <point x="187" y="-10"/>
      <point x="225" y="100"/>
      <point x="237" y="335" type="curve" smooth="yes"/>
      <point x="245" y="493" type="line"/>
      <point x="407" y="493" type="line"/>
      <point x="407" y="30" type="line"/>
      <point x="337" y="20" type="line"/>
      <point x="337" y="0" type="line"/>
      <point x="643" y="0" type="line" smooth="yes"/>
      <point x="761" y="0"/>
      <point x="836" y="50"/>
      <point x="836" y="150" type="curve" smooth="yes"/>
      <point x="836" y="250"/>
      <point x="761" y="300"/>
      <point x="643" y="300" type="curve" smooth="yes"/>
      <point x="507" y="300" type="line"/>
      <point x="507" y="488" type="line"/>
      <point x="577" y="498" type="line"/>
      <point x="577" y="518" type="line"/>
      <point x="128" y="518" type="line"/>
      <point x="128" y="498" type="line"/>
      <point x="219" y="455" type="line"/>
      <point x="213" y="336" type="line" smooth="yes"/>
      <point x="202" y="120"/>
      <point x="169" y="46"/>
      <point x="130" y="46" type="curve" smooth="yes"/>
      <point x="115" y="46"/>
      <point x="110" y="54"/>
      <point x="110" y="62" type="curve" smooth="yes"/>
      <point x="110" y="70"/>
      <point x="113" y="79"/>
      <point x="123" y="88" type="curve"/>
      <point x="123" y="88"/>
      <point x="109" y="117"/>
      <point x="73" y="117" type="curve" smooth="yes"/>
      <point x="43" y="117"/>
      <point x="15" y="96"/>
      <point x="15" y="57" type="curve" smooth="yes"/>
      <point x="15" y="12"/>
      <point x="45" y="-10"/>
    </contour>
    <contour>
      <point x="507" y="25" type="line"/>
      <point x="507" y="275" type="line"/>
      <point x="613" y="275" type="line" smooth="yes"/>
      <point x="686" y="275"/>
      <point x="728" y="231"/>
      <point x="728" y="151" type="curve" smooth="yes"/>
      <point x="728" y="149" type="line" smooth="yes"/>
      <point x="728" y="69"/>
      <point x="686" y="25"/>
      <point x="613" y="25" type="curve" smooth="yes"/>
    </contour>
  </outline>
</glyph>
<glyph name="nje-cy" format="2">
  <advance width="887"/>
  <unicode hex="045A"/>
  <outline>
    <contour>
      <point x="372" y="0" type="line"/>
      <point x="683" y="0" type="line" smooth="yes"/>
      <point x="798" y="0"/>
      <point x="871" y="46"/>
      <point x="871" y="137" type="curve" smooth="yes"/>
      <point x="871" y="229"/>
      <point x="798" y="275"/>
      <point x="683" y="275" type="curve" smooth="yes"/>
      <point x="542" y="275" type="line"/>
      <point x="542" y="488" type="line"/>
      <point x="612" y="498" type="line"/>
      <point x="612" y="518" type="line"/>
      <point x="372" y="518" type="line"/>
      <point x="372" y="498" type="line"/>
      <point x="442" y="488" type="line"/>
      <point x="442" y="30" type="line"/>
      <point x="372" y="20" type="line"/>
    </contour>
    <contour>
      <point x="27" y="0" type="line"/>
      <point x="257" y="0" type="line"/>
      <point x="257" y="20" type="line"/>
      <point x="197" y="30" type="line"/>
      <point x="197" y="250" type="line"/>
      <point x="442" y="250" type="line"/>
      <point x="442" y="275" type="line"/>
      <point x="197" y="275" type="line"/>
      <point x="197" y="488" type="line"/>
      <point x="257" y="498" type="line"/>
      <point x="257" y="518" type="line"/>
      <point x="27" y="518" type="line"/>
      <point x="27" y="498" type="line"/>
      <point x="97" y="488" type="line"/>
      <point x="97" y="30" type="line"/>
      <point x="27" y="20" type="line"/>
    </contour>
    <contour>
      <point x="542" y="25" type="line"/>
      <point x="542" y="250" type="line"/>
      <point x="653" y="250" type="line" smooth="yes"/>
      <point x="723" y="250"/>
      <point x="763" y="210"/>
      <point x="763" y="138" type="curve" smooth="yes"/>
      <point x="763" y="136" type="line" smooth="yes"/>
      <point x="763" y="65"/>
      <point x="723" y="25"/>
      <point x="653" y="25" type="curve" smooth="yes"/>
    </contour>
  </outline>
</glyph>
<glyph name="tshe-cy" format="2">
  <advance width="628"/>
  <unicode hex="045B"/>
  <outline>
    <contour>
      <point x="20" y="0" type="line"/>
      <point x="250" y="0" type="line"/>
      <point x="250" y="20" type="line"/>
      <point x="190" y="30" type="line"/>
      <point x="190" y="355" type="line"/>
      <point x="228" y="412"/>
      <point x="288" y="471"/>
      <point x="354" y="471" type="curve" smooth="yes"/>
      <point x="414" y="471"/>
      <point x="440" y="429"/>
      <point x="440" y="362" type="curve" smooth="yes"/>
      <point x="440" y="30" type="line"/>
      <point x="380" y="20" type="line"/>
      <point x="380" y="0" type="line"/>
      <point x="610" y="0" type="line"/>
      <point x="610" y="20" type="line"/>
      <point x="540" y="30" type="line"/>
      <point x="540" y="364" type="line" smooth="yes"/>
      <point x="540" y="462"/>
      <point x="478" y="507"/>
      <point x="385" y="507" type="curve" smooth="yes"/>
      <point x="305" y="507"/>
      <point x="237" y="458"/>
      <point x="190" y="390" type="curve"/>
      <point x="190" y="800" type="line"/>
      <point x="20" y="800" type="line"/>
      <point x="20" y="780" type="line"/>
      <point x="90" y="770" type="line"/>
      <point x="90" y="30" type="line"/>
      <point x="20" y="20" type="line"/>
    </contour>
    <contour>
      <point x="0" y="636" type="line"/>
      <point x="375" y="636" type="line"/>
      <point x="375" y="661" type="line"/>
      <point x="0" y="661" type="line"/>
    </contour>
  </outline>
</glyph>
<glyph name="dzhe-cy" format="2">
  <advance width="631"/>
  <unicode hex="045F"/>
  <outline>
    <contour>
      <point x="27" y="0" type="line"/>
      <point x="604" y="0" type="line"/>
      <point x="604" y="20" type="line"/>
      <point x="534" y="30" type="line"/>
      <point x="534" y="488" type="line"/>
      <point x="604" y="498" type="line"/>
      <point x="604" y="518" type="line"/>
      <point x="374" y="518" type="line"/>
      <point x="374" y="498" type="line"/>
      <point x="434" y="488" type="line"/>
      <point x="434" y="25" type="line"/>
      <point x="197" y="25" type="line"/>
      <point x="197" y="488" type="line"/>
      <point x="257" y="498" type="line"/>
      <point x="257" y="518" type="line"/>
      <point x="27" y="518" type="line"/>
      <point x="27" y="498" type="line"/>
      <point x="97" y="488" type="line"/>
      <point x="97" y="30" type="line"/>
      <point x="27" y="20" type="line"/>
    </contour>
    <contour>
      <point x="305" y="-164" type="line"/>
      <point x="328" y="-164" type="line"/>
      <point x="366" y="15" type="line"/>
      <point x="267" y="15" type="line"/>
    </contour>
  </outline>
</glyph>
<glyph name="yat-cy" format="2">
  <advance width="667"/>
  <unicode hex="0463"/>
  <outline>
    <contour>
      <point x="152" y="0" type="line"/>
      <point x="458" y="0" type="line" smooth="yes"/>
      <point x="576" y="0"/>
      <point x="651" y="50"/>
      <point x="651" y="150" type="curve" smooth="yes"/>
      <point x="651" y="250"/>
      <point x="576" y="300"/>
      <point x="458" y="300" type="curve" smooth="yes"/>
      <point x="322" y="300" type="line"/>
      <point x="322" y="800" type="line"/>
      <point x="152" y="800" type="line"/>
      <point x="152" y="780" type="line"/>
      <point x="222" y="770" type="line"/>
      <point x="222" y="30" type="line"/>
      <point x="152" y="20" type="line"/>
    </contour>
    <contour>
      <point x="322" y="25" type="line"/>
      <point x="322" y="275" type="line"/>
      <point x="428" y="275" type="line" smooth="yes"/>
      <point x="501" y="275"/>
      <point x="543" y="231"/>
      <point x="543" y="151" type="curve" smooth="yes"/>
      <point x="543" y="149" type="line" smooth="yes"/>
      <point x="543" y="69"/>
      <point x="501" y="25"/>
      <point x="428" y="25" type="curve" smooth="yes"/>
    </contour>
    <contour>
      <point x="21" y="398" type="line"/>
      <point x="49" y="398" type="line"/>
      <point x="136" y="563" type="line"/>
      <point x="407" y="563" type="line"/>
      <point x="495" y="398" type="line"/>
      <point x="523" y="398" type="line"/>
      <point x="508" y="588" type="line"/>
      <point x="36" y="588" type="line"/>
    </contour>
  </outline>
</glyph>
<glyph name="Yusbig-cy" format="2">
  <advance width="1042"/>
  <unicode hex="046A"/>
  <outline>
    <contour>
      <point x="97" y="-10" type="curve" smooth="yes"/>
      <point x="172" y="-10"/>
      <point x="206" y="22"/>
      <point x="219" y="109" type="curve" smooth="yes"/>
      <point x="243" y="278" type="line" smooth="yes"/>
      <point x="256" y="370"/>
      <point x="292" y="413"/>
      <point x="392" y="413" type="curve" smooth="yes"/>
      <point x="466" y="413" type="line"/>
      <point x="466" y="36" type="line"/>
      <point x="374" y="21" type="line"/>
      <point x="374" y="0" type="line"/>
      <point x="668" y="0" type="line"/>
      <point x="668" y="21" type="line"/>
      <point x="576" y="36" type="line"/>
      <point x="576" y="413" type="line"/>
      <point x="650" y="413" type="line" smooth="yes"/>
      <point x="750" y="413"/>
      <point x="786" y="370"/>
      <point x="799" y="278" type="curve" smooth="yes"/>
      <point x="823" y="109" type="line" smooth="yes"/>
      <point x="836" y="22"/>
      <point x="870" y="-10"/>
      <point x="945" y="-10" type="curve" smooth="yes"/>
      <point x="994" y="-10"/>
      <point x="1036" y="10"/>
      <point x="1072" y="51" type="curve"/>
      <point x="1055" y="69" type="line"/>
      <point x="1030" y="43"/>
      <point x="1006" y="32"/>
      <point x="983" y="36" type="curve" smooth="yes"/>
      <point x="960" y="41"/>
      <point x="951" y="64"/>
      <point x="940" y="131" type="curve" smooth="yes"/>
      <point x="917" y="282" type="line" smooth="yes"/>
      <point x="901" y="388"/>
      <point x="832" y="437"/>
      <point x="705" y="437" type="curve" smooth="yes"/>
      <point x="337" y="437" type="line" smooth="yes"/>
      <point x="210" y="437"/>
      <point x="141" y="388"/>
      <point x="125" y="282" type="curve" smooth="yes"/>
      <point x="102" y="131" type="line" smooth="yes"/>
      <point x="91" y="64"/>
      <point x="82" y="41"/>
      <point x="59" y="36" type="curve" smooth="yes"/>
      <point x="36" y="32"/>
      <point x="12" y="43"/>
      <point x="-14" y="69" type="curve"/>
      <point x="-31" y="51" type="line"/>
      <point x="6" y="10"/>
      <point x="48" y="-10"/>
    </contour>
    <contour>
      <point x="445" y="422" type="line"/>
      <point x="586" y="422" type="line"/>
      <point x="579" y="422" type="line"/>
      <point x="270" y="800" type="line"/>
      <point x="137" y="800" type="line"/>
      <point x="445" y="422" type="line"/>
      <point x="554" y="422" type="line"/>
      <point x="579" y="422" type="line"/>
      <point x="586" y="422" type="line"/>
      <point x="898" y="800" type="line"/>
      <point x="867" y="800" type="line"/>
      <point x="554" y="422" type="line"/>
    </contour>
    <contour>
      <point x="188" y="778" type="line"/>
      <point x="874" y="778" type="line"/>
      <point x="874" y="800" type="line"/>
      <point x="188" y="800" type="line"/>
    </contour>
  </outline>
</glyph>
<glyph name="yusbig-cy" format="2">
  <advance width="820"/>
  <unicode hex="046B"/>
  <outline>
    <contour>
      <point x="76" y="-12" type="curve" smooth="yes"/>
      <point x="135" y="-12"/>
      <point x="159" y="12"/>
      <point x="170" y="69" type="curve" smooth="yes"/>
      <point x="190" y="177" type="line" smooth="yes"/>
      <point x="201" y="243"/>
      <point x="231" y="263"/>
      <point x="277" y="263" type="curve" smooth="yes"/>
      <point x="360" y="263" type="line"/>
      <point x="360" y="31" type="line"/>
      <point x="288" y="20" type="line"/>
      <point x="288" y="0" type="line"/>
      <point x="532" y="0" type="line"/>
      <point x="532" y="20" type="line"/>
      <point x="460" y="31" type="line"/>
      <point x="460" y="263" type="line"/>
      <point x="538" y="263" type="line" smooth="yes"/>
      <point x="587" y="263"/>
      <point x="617" y="246"/>
      <point x="630" y="177" type="curve" smooth="yes"/>
      <point x="650" y="69" type="line" smooth="yes"/>
      <point x="661" y="12"/>
      <point x="685" y="-12"/>
      <point x="744" y="-12" type="curve" smooth="yes"/>
      <point x="776" y="-12"/>
      <point x="814" y="3"/>
      <point x="840" y="33" type="curve"/>
      <point x="825" y="48" type="line"/>
      <point x="812" y="35"/>
      <point x="800" y="30"/>
      <point x="790" y="30" type="curve" smooth="yes"/>
      <point x="770" y="30"/>
      <point x="761" y="41"/>
      <point x="753" y="85" type="curve" smooth="yes"/>
      <point x="736" y="173" type="line" smooth="yes"/>
      <point x="719" y="259"/>
      <point x="668" y="286"/>
      <point x="543" y="286" type="curve" smooth="yes"/>
      <point x="277" y="286" type="line" smooth="yes"/>
      <point x="152" y="286"/>
      <point x="101" y="259"/>
      <point x="84" y="173" type="curve" smooth="yes"/>
      <point x="67" y="85" type="line" smooth="yes"/>
      <point x="59" y="41"/>
      <point x="50" y="30"/>
      <point x="30" y="30" type="curve" smooth="yes"/>
      <point x="20" y="30"/>
      <point x="8" y="35"/>
      <point x="-5" y="48" type="curve"/>
      <point x="-20" y="33" type="line"/>
      <point x="6" y="3"/>
      <point x="44" y="-12"/>
    </contour>
    <contour>
      <point x="343" y="277" type="line"/>
      <point x="449" y="277" type="line"/>
      <point x="465" y="277" type="line"/>
      <point x="470" y="277" type="line"/>
      <point x="696" y="518" type="line"/>
      <point x="666" y="518" type="line"/>
      <point x="436" y="277" type="line"/>
      <point x="470" y="277" type="line"/>
      <point x="465" y="277" type="line"/>
      <point x="231" y="518" type="line"/>
      <point x="109" y="518" type="line"/>
    </contour>
    <contour>
      <point x="147" y="495" type="line"/>
      <point x="669" y="495" type="line"/>
      <point x="669" y="518" type="line"/>
      <point x="147" y="518" type="line"/>
    </contour>
  </outline>
</glyph>
<glyph name="Fita-cy" format="2">
  <advance width="862"/>
  <unicode hex="0472"/>
  <anchor x="431" y="0" name="bottom"/>
  <anchor x="431" y="400" name="center"/>
  <anchor x="776" y="10" name="ogonek"/>
  <anchor x="431" y="800" name="top"/>
  <anchor x="20" y="800" name="topleft"/>
  <anchor x="684" y="783" name="topright"/>
  <outline>
    <contour>
      <point x="96" y="411" type="line"/>
      <point x="736" y="411" type="line"/>
      <point x="736" y="436" type="line"/>
      <point x="96" y="436" type="line"/>
    </contour>
    <component base="O"/>
  </outline>
</glyph>
<glyph name="fita-cy" format="2">
  <advance width="604"/>
  <unicode hex="0473"/>
  <anchor x="302" y="0" name="bottom"/>
  <anchor x="302" y="259" name="center"/>
  <anchor x="544" y="10" name="ogonek"/>
  <anchor x="302" y="518" name="top"/>
  <anchor x="508" y="488" name="topright"/>
  <outline>
    <contour>
      <point x="361" y="216" type="curve"/>
      <point x="448" y="216"/>
      <point x="464" y="304"/>
      <point x="464" y="304" type="curve" smooth="yes"/>
      <point x="451" y="307" type="line"/>
      <point x="441" y="285"/>
      <point x="420" y="272"/>
      <point x="398" y="272" type="curve"/>
      <point x="349" y="272"/>
      <point x="302" y="325"/>
      <point x="238" y="325" type="curve"/>
      <point x="153" y="325"/>
      <point x="135" y="236"/>
      <point x="136" y="236" type="curve" smooth="yes"/>
      <point x="149" y="234" type="line"/>
      <point x="159" y="258"/>
      <point x="181" y="269"/>
      <point x="201" y="269" type="curve"/>
      <point x="251" y="269"/>
      <point x="297" y="216"/>
    </contour>
    <component base="o"/>
  </outline>
</glyph>
<glyph name="Izhitsa-cy" format="2">
  <advance width="784"/>
  <unicode hex="0474"/>
  <outline>
    <contour>
      <point x="339" y="-20" type="line"/>
      <point x="347" y="-20" type="line"/>
      <point x="623" y="707" type="line" smooth="yes"/>
      <point x="636" y="742"/>
      <point x="650" y="751"/>
      <point x="671" y="751" type="curve" smooth="yes"/>
      <point x="689" y="751"/>
      <point x="700" y="739"/>
      <point x="700" y="725" type="curve" smooth="yes"/>
      <point x="700" y="710"/>
      <point x="694" y="697"/>
      <point x="681" y="685" type="curve"/>
      <point x="681" y="685"/>
      <point x="699" y="648"/>
      <point x="745" y="648" type="curve" smooth="yes"/>
      <point x="781" y="648"/>
      <point x="815" y="673"/>
      <point x="815" y="721" type="curve" smooth="yes"/>
      <point x="815" y="780"/>
      <point x="768" y="809"/>
      <point x="714" y="809" type="curve" smooth="yes"/>
      <point x="665" y="809"/>
      <point x="630" y="794"/>
      <point x="599" y="712" type="curve" smooth="yes"/>
      <point x="390" y="167" type="line"/>
      <point x="170" y="766" type="line"/>
      <point x="264" y="778" type="line"/>
      <point x="264" y="800" type="line"/>
      <point x="-29" y="800" type="line"/>
      <point x="-29" y="778" type="line"/>
      <point x="51" y="764" type="line"/>
    </contour>
  </outline>
</glyph>
<glyph name="ghemiddlehook-cy" format="2">
  <advance width="566"/>
  <unicode hex="0495"/>
  <anchor x="237" y="0" name="bottomright"/>
  <anchor x="247" y="518" name="top"/>
  <outline>
    <contour>
      <point x="257" y="-288" type="line"/>
      <point x="432" y="-189"/>
      <point x="534" y="-70"/>
      <point x="534" y="104" type="curve" smooth="yes"/>
      <point x="534" y="216"/>
      <point x="478" y="280"/>
      <point x="313" y="280" type="curve" smooth="yes"/>
      <point x="244" y="280"/>
      <point x="191" y="257"/>
      <point x="191" y="257" type="curve"/>
      <point x="191" y="231" type="line"/>
      <point x="191" y="231"/>
      <point x="239" y="257"/>
      <point x="313" y="257" type="curve" smooth="yes"/>
      <point x="398" y="257"/>
      <point x="433" y="198"/>
      <point x="433" y="104" type="curve" smooth="yes"/>
      <point x="433" y="-33"/>
      <point x="396" y="-171"/>
      <point x="245" y="-276" type="curve"/>
    </contour>
    <component base="ge-cy"/>
  </outline>
</glyph>
<glyph name="Zedescender-cy" format="2">
  <advance width="676"/>
  <unicode hex="0498"/>
  <anchor x="327" y="800" name="top"/>
  <outline>
    <contour>
      <point x="306" y="-220" type="line"/>
      <point x="337" y="-220" type="line"/>
      <point x="383" y="-3" type="line"/>
      <point x="260" y="-3" type="line"/>
    </contour>
    <component base="Ze-cy"/>
  </outline>
</glyph>
<glyph name="kabashkir-cy" format="2">
  <advance width="702"/>
  <unicode hex="04A1"/>
  <anchor x="422" y="518" name="top"/>
  <outline>
    <contour>
      <point x="611" y="-10" type="curve" smooth="yes"/>
      <point x="643" y="-10"/>
      <point x="681" y="5"/>
      <point x="707" y="35" type="curve"/>
      <point x="692" y="50" type="line"/>
      <point x="679" y="37"/>
      <point x="667" y="32"/>
      <point x="657" y="32" type="curve" smooth="yes"/>
      <point x="637" y="32"/>
      <point x="629" y="43"/>
      <point x="620" y="87" type="curve" smooth="yes"/>
      <point x="603" y="173" type="line" smooth="yes"/>
      <point x="590" y="241"/>
      <point x="556" y="276"/>
      <point x="466" y="284" type="curve"/>
      <point x="482" y="299"/>
      <point x="492" y="322"/>
      <point x="500" y="350" type="curve" smooth="yes"/>
      <point x="519" y="422" type="line" smooth="yes"/>
      <point x="524" y="440"/>
      <point x="534" y="450"/>
      <point x="551" y="450" type="curve" smooth="yes"/>
      <point x="572" y="450"/>
      <point x="586" y="429"/>
      <point x="576" y="402" type="curve"/>
      <point x="586" y="398"/>
      <point x="596" y="397"/>
      <point x="605" y="397" type="curve" smooth="yes"/>
      <point x="643" y="397"/>
      <point x="666" y="427"/>
      <point x="666" y="460" type="curve" smooth="yes"/>
      <point x="666" y="495"/>
      <point x="641" y="527"/>
      <point x="590" y="527" type="curve" smooth="yes"/>
      <point x="528" y="527"/>
      <point x="508" y="487"/>
      <point x="494" y="429" type="curve" smooth="yes"/>
      <point x="476" y="357" type="line" smooth="yes"/>
      <point x="463" y="306"/>
      <point x="442" y="286"/>
      <point x="409" y="286" type="curve" smooth="yes"/>
      <point x="317" y="286" type="line"/>
      <point x="317" y="488" type="line"/>
      <point x="387" y="498" type="line"/>
      <point x="387" y="518" type="line"/>
      <point x="36" y="518" type="line"/>
      <point x="21" y="328" type="line"/>
      <point x="49" y="328" type="line"/>
      <point x="136" y="493" type="line"/>
      <point x="217" y="493" type="line"/>
      <point x="217" y="31" type="line"/>
      <point x="145" y="20" type="line"/>
      <point x="145" y="0" type="line"/>
      <point x="389" y="0" type="line"/>
      <point x="389" y="20" type="line"/>
      <point x="317" y="31" type="line"/>
      <point x="317" y="263" type="line"/>
      <point x="410" y="263" type="line" smooth="yes"/>
      <point x="456" y="262"/>
      <point x="484" y="243"/>
      <point x="497" y="177" type="curve" smooth="yes"/>
      <point x="517" y="71" type="line" smooth="yes"/>
      <point x="528" y="14"/>
      <point x="552" y="-10"/>
    </contour>
  </outline>
</glyph>
<glyph name="Endescender-cy" format="2">
  <advance width="872"/>
  <unicode hex="04A2"/>
  <outline>
    <contour>
      <point x="802" y="-220" type="line"/>
      <point x="832" y="-220" type="line"/>
      <point x="817" y="25" type="line"/>
      <point x="731" y="25" type="line"/>
      <point x="731" y="764" type="line"/>
      <point x="824" y="778" type="line"/>
      <point x="824" y="800" type="line"/>
      <point x="529" y="800" type="line"/>
      <point x="529" y="778" type="line"/>
      <point x="622" y="764" type="line"/>
      <point x="622" y="436" type="line"/>
      <point x="242" y="436" type="line"/>
      <point x="242" y="764" type="line"/>
      <point x="334" y="778" type="line"/>
      <point x="334" y="800" type="line"/>
      <point x="40" y="800" type="line"/>
      <point x="40" y="778" type="line"/>
      <point x="132" y="764" type="line"/>
      <point x="132" y="36" type="line"/>
      <point x="40" y="21" type="line"/>
      <point x="40" y="0" type="line"/>
      <point x="334" y="0" type="line"/>
      <point x="334" y="21" type="line"/>
      <point x="242" y="36" type="line"/>
      <point x="242" y="411" type="line"/>
      <point x="622" y="411" type="line"/>
      <point x="622" y="0" type="line"/>
      <point x="698" y="0" type="line"/>
    </contour>
    <contour>
      <point x="529" y="0" type="line"/>
      <point x="622" y="0" type="line"/>
      <point x="667" y="43" type="line"/>
      <point x="529" y="22" type="line"/>
    </contour>
  </outline>
</glyph>
<glyph name="enghe-cy" format="2">
  <advance width="817"/>
  <unicode hex="04A5"/>
  <outline>
    <contour>
      <point x="374" y="0" type="line"/>
      <point x="634" y="0" type="line"/>
      <point x="634" y="20" type="line"/>
      <point x="544" y="30" type="line"/>
      <point x="544" y="493" type="line"/>
      <point x="680" y="493" type="line"/>
      <point x="768" y="328" type="line"/>
      <point x="796" y="328" type="line"/>
      <point x="781" y="518" type="line"/>
      <point x="374" y="518" type="line"/>
      <point x="374" y="498" type="line"/>
      <point x="444" y="488" type="line"/>
      <point x="444" y="30" type="line"/>
      <point x="374" y="20" type="line"/>
    </contour>
    <contour>
      <point x="27" y="0" type="line"/>
      <point x="257" y="0" type="line"/>
      <point x="257" y="20" type="line"/>
      <point x="197" y="30" type="line"/>
      <point x="197" y="250" type="line"/>
      <point x="444" y="250" type="line"/>
      <point x="444" y="275" type="line"/>
      <point x="197" y="275" type="line"/>
      <point x="197" y="488" type="line"/>
      <point x="257" y="498" type="line"/>
      <point x="257" y="518" type="line"/>
      <point x="27" y="518" type="line"/>
      <point x="27" y="498" type="line"/>
      <point x="97" y="488" type="line"/>
      <point x="97" y="30" type="line"/>
      <point x="27" y="20" type="line"/>
    </contour>
  </outline>
</glyph>
<glyph name="Esdescender-cy" format="2">
  <advance width="746"/>
  <unicode hex="04AA"/>
  <outline>
    <contour>
      <point x="394" y="-220" type="line"/>
      <point x="425" y="-220" type="line"/>
      <point x="471" y="-3" type="line"/>
      <point x="348" y="-3" type="line"/>
    </contour>
    <component base="Es-cy"/>
  </outline>
</glyph>
<glyph name="esdescender-cy" format="2">
  <advance width="547"/>
  <unicode hex="04AB"/>
  <outline>
    <contour>
      <point x="287" y="-164" type="line"/>
      <point x="310" y="-164" type="line"/>
      <point x="345" y="2" type="line"/>
      <point x="252" y="2" type="line"/>
    </contour>
    <component base="es-cy"/>
  </outline>
</glyph>
<glyph name="ustrait-cy" format="2">
  <advance width="530"/>
  <unicode hex="04AF"/>
  <outline>
    <contour>
      <point x="232" y="20" type="line"/>
      <point x="323" y="56" type="line"/>
      <point x="163" y="485" type="line"/>
      <point x="235" y="498" type="line"/>
      <point x="235" y="518" type="line"/>
      <point x="-14" y="518" type="line"/>
      <point x="-14" y="498" type="line"/>
      <point x="51" y="488" type="line"/>
    </contour>
    <contour>
      <point x="157" y="-283" type="line"/>
      <point x="397" y="-283" type="line"/>
      <point x="397" y="-263" type="line"/>
      <point x="327" y="-253" type="line"/>
      <point x="327" y="65" type="line"/>
      <point x="227" y="65" type="line"/>
      <point x="227" y="-253" type="line"/>
      <point x="157" y="-263" type="line"/>
    </contour>
    <contour>
      <point x="298" y="26" type="line"/>
      <point x="325" y="26" type="line"/>
      <point x="477" y="473" type="line"/>
      <point x="540" y="497" type="line"/>
      <point x="540" y="517" type="line"/>
      <point x="361" y="517" type="line"/>
      <point x="361" y="497" type="line"/>
      <point x="449" y="472" type="line"/>
    </contour>
  </outline>
</glyph>
<glyph name="Chekhakassian-cy" format="2">
  <advance width="810"/>
  <unicode hex="04CB"/>
  <outline>
    <contour>
      <point x="468" y="-220" type="line"/>
      <point x="498" y="-220" type="line"/>
      <point x="602" y="0" type="line"/>
      <point x="677" y="0" type="line"/>
      <point x="677" y="764" type="line"/>
      <point x="770" y="778" type="line"/>
      <point x="770" y="800" type="line"/>
      <point x="475" y="800" type="line"/>
      <point x="475" y="778" type="line"/>
      <point x="568" y="764" type="line"/>
      <point x="568" y="399" type="line"/>
      <point x="568" y="399"/>
      <point x="496" y="355"/>
      <point x="373" y="355" type="curve" smooth="yes"/>
      <point x="261" y="355"/>
      <point x="218" y="415"/>
      <point x="218" y="534" type="curve" smooth="yes"/>
      <point x="218" y="764" type="line"/>
      <point x="310" y="778" type="line"/>
      <point x="310" y="800" type="line"/>
      <point x="16" y="800" type="line"/>
      <point x="16" y="778" type="line"/>
      <point x="108" y="764" type="line"/>
      <point x="108" y="532" type="line" smooth="yes"/>
      <point x="108" y="394"/>
      <point x="168" y="332"/>
      <point x="373" y="332" type="curve" smooth="yes"/>
      <point x="490" y="332"/>
      <point x="568" y="373"/>
      <point x="568" y="373" type="curve"/>
      <point x="568" y="25" type="line"/>
      <point x="483" y="25" type="line"/>
    </contour>
    <contour>
      <point x="677" y="0" type="line"/>
      <point x="770" y="0" type="line"/>
      <point x="770" y="22" type="line"/>
      <point x="632" y="43" type="line"/>
    </contour>
  </outline>
</glyph>
<glyph name="chekhakassian-cy" format="2">
  <advance width="609"/>
  <unicode hex="04CC"/>
  <outline>
    <contour>
      <point x="326" y="-165" type="line"/>
      <point x="354" y="-165" type="line"/>
      <point x="442" y="0" type="line"/>
      <point x="512" y="0" type="line"/>
      <point x="512" y="488" type="line"/>
      <point x="582" y="498" type="line"/>
      <point x="582" y="518" type="line"/>
      <point x="352" y="518" type="line"/>
      <point x="352" y="498" type="line"/>
      <point x="412" y="488" type="line"/>
      <point x="412" y="251" type="line"/>
      <point x="390" y="238"/>
      <point x="344" y="218"/>
      <point x="275" y="218" type="curve" smooth="yes"/>
      <point x="201" y="218"/>
      <point x="176" y="261"/>
      <point x="176" y="332" type="curve" smooth="yes"/>
      <point x="176" y="488" type="line"/>
      <point x="236" y="498" type="line"/>
      <point x="236" y="518" type="line"/>
      <point x="6" y="518" type="line"/>
      <point x="6" y="498" type="line"/>
      <point x="76" y="488" type="line"/>
      <point x="76" y="332" type="line" smooth="yes"/>
      <point x="76" y="225"/>
      <point x="146" y="188"/>
      <point x="249" y="188" type="curve" smooth="yes"/>
      <point x="329" y="188"/>
      <point x="385" y="210"/>
      <point x="412" y="224" type="curve"/>
      <point x="412" y="25" type="line"/>
      <point x="341" y="25" type="line"/>
    </contour>
    <contour>
      <point x="512" y="0" type="line"/>
      <point x="572" y="0" type="line"/>
      <point x="572" y="20" type="line"/>
      <point x="451" y="40" type="line"/>
    </contour>
  </outline>
</glyph>
<glyph name="schwa-cy" format="2">
  <advance width="563"/>
  <unicode hex="04D9"/>
  <outline>
    <contour>
      <point x="274" y="-9" type="curve" smooth="yes"/>
      <point x="410" y="-9"/>
      <point x="520" y="96"/>
      <point x="520" y="259" type="curve" smooth="yes"/>
      <point x="520" y="422"/>
      <point x="404" y="527"/>
      <point x="256" y="527" type="curve" smooth="yes"/>
      <point x="205" y="527"/>
      <point x="166" y="513"/>
      <point x="139" y="499" type="curve"/>
      <point x="79" y="528" type="line"/>
      <point x="68" y="338" type="line"/>
      <point x="89" y="338" type="line"/>
      <point x="149" y="481" type="line"/>
      <point x="173" y="495"/>
      <point x="210" y="508"/>
      <point x="256" y="508" type="curve" smooth="yes"/>
      <point x="359" y="508"/>
      <point x="410" y="423"/>
      <point x="410" y="309" type="curve" smooth="yes"/>
      <point x="410" y="210" type="line" smooth="yes"/>
      <point x="410" y="97"/>
      <point x="365" y="13"/>
      <point x="275" y="13" type="curve" smooth="yes"/>
      <point x="191" y="13"/>
      <point x="152" y="80"/>
      <point x="152" y="250" type="curve"/>
      <point x="42" y="250" type="line"/>
      <point x="44" y="87"/>
      <point x="139" y="-9"/>
    </contour>
    <contour>
      <point x="152" y="225" type="line"/>
      <point x="471" y="225" type="line"/>
      <point x="471" y="250" type="line"/>
      <point x="152" y="250" type="line"/>
    </contour>
  </outline>
</glyph>
<glyph name="Obarred-cy" format="2">
  <advance width="862"/>
  <unicode hex="04E8"/>
  <anchor x="431" y="0" name="bottom"/>
  <anchor x="431" y="400" name="center"/>
  <anchor x="776" y="10" name="ogonek"/>
  <anchor x="431" y="800" name="top"/>
  <anchor x="20" y="800" name="topleft"/>
  <anchor x="684" y="783" name="topright"/>
  <outline>
    <contour>
      <point x="136" y="411" type="line"/>
      <point x="716" y="411" type="line"/>
      <point x="716" y="436" type="line"/>
      <point x="136" y="436" type="line"/>
    </contour>
    <component base="O"/>
  </outline>
</glyph>
<glyph name="obarred-cy" format="2">
  <advance width="604"/>
  <unicode hex="04E9"/>
  <anchor x="302" y="0" name="bottom"/>
  <anchor x="302" y="259" name="center"/>
  <anchor x="544" y="10" name="ogonek"/>
  <anchor x="302" y="518" name="top"/>
  <anchor x="508" y="488" name="topright"/>
  <outline>
    <contour>
      <point x="126" y="250" type="line"/>
      <point x="463" y="250" type="line"/>
      <point x="463" y="275" type="line"/>
      <point x="126" y="275" type="line"/>
    </contour>
    <component base="o"/>
  </outline>
</glyph>
<glyph name="Uhungarumlaut-cy" format="2">
  <advance width="727"/>
  <unicode hex="04F2"/>
  <anchor x="397" y="800" name="top"/>
  <outline>
    <contour>
      <point x="226" y="842" type="line"/>
      <point x="403" y="927" type="line"/>
      <point x="413" y="930"/>
      <point x="422" y="940"/>
      <point x="426" y="951" type="curve" smooth="yes"/>
      <point x="433" y="972"/>
      <point x="422" y="995"/>
      <point x="403" y="1002" type="curve" smooth="yes"/>
      <point x="387" y="1008"/>
      <point x="371" y="1003"/>
      <point x="359" y="993" type="curve" smooth="yes"/>
      <point x="217" y="857" type="line"/>
    </contour>
    <contour>
      <point x="399" y="851" type="line"/>
      <point x="583" y="920" type="line"/>
      <point x="593" y="922"/>
      <point x="603" y="931"/>
      <point x="608" y="942" type="curve" smooth="yes"/>
      <point x="617" y="962"/>
      <point x="608" y="986"/>
      <point x="589" y="995" type="curve" smooth="yes"/>
      <point x="574" y="1002"/>
      <point x="557" y="999"/>
      <point x="545" y="989" type="curve" smooth="yes"/>
      <point x="391" y="866" type="line"/>
    </contour>
    <component base="U-cy"/>
  </outline>
</glyph>
<glyph name="Pedescender-cy" format="2">
  <advance width="863"/>
  <unicode hex="0524"/>
  <outline>
    <contour>
      <point x="793" y="-220" type="line"/>
      <point x="823" y="-220" type="line"/>
      <point x="808" y="25" type="line"/>
      <point x="722" y="25" type="line"/>
      <point x="722" y="764" type="line"/>
      <point x="815" y="778" type="line"/>
      <point x="815" y="800" type="line"/>
      <point x="40" y="800" type="line"/>
      <point x="40" y="778" type="line"/>
      <point x="132" y="764" type="line"/>
      <point x="132" y="36" type="line"/>
      <point x="40" y="21" type="line"/>
      <point x="40" y="0" type="line"/>
      <point x="334" y="0" type="line"/>
      <point x="334" y="21" type="line"/>
      <point x="242" y="36" type="line"/>
      <point x="242" y="775" type="line"/>
      <point x="612" y="775" type="line"/>
      <point x="612" y="36" type="line"/>
      <point x="520" y="21" type="line"/>
      <point x="520" y="0" type="line"/>
      <point x="689" y="0" type="line"/>
    </contour>
  </outline>
</glyph>
<glyph name="endash" format="2">
  <advance width="640"/>
  <unicode hex="2013"/>
  <outline>
    <contour>
      <point x="65" y="339" type="line"/>
      <point x="575" y="339" type="line"/>
      <point x="575" y="375" type="line"/>
      <point x="65" y="375" type="line"/>
    </contour>
  </outline>
</glyph>
<glyph name="emdash" format="2">
  <advance width="1140"/>
  <unicode hex="2014"/>
  <outline>
    <contour>
      <point x="65" y="340" type="line"/>
      <point x="1075" y="340" type="line"/>
      <point x="1075" y="374" type="line"/>
      <point x="65" y="374" type="line"/>
    </contour>
  </outline>
</glyph>
<glyph name="quoteleft" format="2">
  <advance width="224"/>
  <unicode hex="2018"/>
  <outline>
    <contour>
      <point x="118" y="539" type="curve" smooth="yes"/>
      <point x="151" y="539"/>
      <point x="178" y="564"/>
      <point x="178" y="597" type="curve" smooth="yes"/>
      <point x="178" y="630"/>
      <point x="151" y="657"/>
      <point x="118" y="657" type="curve" smooth="yes"/>
      <point x="105" y="657"/>
      <point x="98" y="665"/>
      <point x="98" y="677" type="curve" smooth="yes"/>
      <point x="98" y="725"/>
      <point x="143" y="772"/>
      <point x="177" y="793" type="curve"/>
      <point x="166" y="809" type="line"/>
      <point x="80" y="767"/>
      <point x="42" y="704"/>
      <point x="42" y="631" type="curve" smooth="yes"/>
      <point x="42" y="577"/>
      <point x="70" y="539"/>
    </contour>
  </outline>
</glyph>
<glyph name="quoteright" format="2">
  <advance width="223"/>
  <unicode hex="2019"/>
  <outline>
    <contour>
      <point x="63" y="539" type="line"/>
      <point x="149" y="581"/>
      <point x="187" y="644"/>
      <point x="187" y="717" type="curve" smooth="yes"/>
      <point x="187" y="771"/>
      <point x="159" y="809"/>
      <point x="111" y="809" type="curve" smooth="yes"/>
      <point x="78" y="809"/>
      <point x="51" y="784"/>
      <point x="51" y="751" type="curve" smooth="yes"/>
      <point x="51" y="718"/>
      <point x="78" y="691"/>
      <point x="111" y="691" type="curve" smooth="yes"/>
      <point x="124" y="691"/>
      <point x="131" y="683"/>
      <point x="131" y="671" type="curve" smooth="yes"/>
      <point x="131" y="623"/>
      <point x="86" y="576"/>
      <point x="52" y="555" type="curve"/>
    </contour>
  </outline>
</glyph>
<glyph name="quotedblleft" format="2">
  <advance width="397"/>
  <unicode hex="201C"/>
  <outline>
    <contour>
      <point x="291" y="539" type="curve" smooth="yes"/>
      <point x="324" y="539"/>
      <point x="351" y="564"/>
      <point x="351" y="597" type="curve" smooth="yes"/>
      <point x="351" y="630"/>
      <point x="324" y="657"/>
      <point x="291" y="657" type="curve" smooth="yes"/>
      <point x="278" y="657"/>
      <point x="271" y="665"/>
      <point x="271" y="677" type="curve" smooth="yes"/>
      <point x="271" y="725"/>
      <point x="316" y="772"/>
      <point x="350" y="793" type="curve"/>
      <point x="339" y="809" type="line"/>
      <point x="253" y="767"/>
      <point x="215" y="704"/>
      <point x="215" y="631" type="curve" smooth="yes"/>
      <point x="215" y="577"/>
      <point x="243" y="539"/>
    </contour>
    <contour>
      <point x="118" y="539" type="curve" smooth="yes"/>
      <point x="151" y="539"/>
      <point x="178" y="564"/>
      <point x="178" y="597" type="curve" smooth="yes"/>
      <point x="178" y="630"/>
      <point x="151" y="657"/>
      <point x="118" y="657" type="curve" smooth="yes"/>
      <point x="105" y="657"/>
      <point x="98" y="665"/>
      <point x="98" y="677" type="curve" smooth="yes"/>
      <point x="98" y="725"/>
      <point x="143" y="772"/>
      <point x="177" y="793" type="curve"/>
      <point x="166" y="809" type="line"/>
      <point x="80" y="767"/>
      <point x="42" y="704"/>
      <point x="42" y="631" type="curve" smooth="yes"/>
      <point x="42" y="577"/>
      <point x="70" y="539"/>
    </contour>
  </outline>
</glyph>
<glyph name="bullet" format="2">
  <advance width="482"/>
  <unicode hex="2022"/>
  <outline>
    <contour>
      <point x="241" y="266" type="curve" smooth="yes"/>
      <point x="291" y="266"/>
      <point x="332" y="307"/>
      <point x="332" y="357" type="curve" smooth="yes"/>
      <point x="332" y="407"/>
      <point x="291" y="448"/>
      <point x="241" y="448" type="curve" smooth="yes"/>
      <point x="191" y="448"/>
      <point x="150" y="407"/>
      <point x="150" y="357" type="curve" smooth="yes"/>
      <point x="150" y="307"/>
      <point x="191" y="266"/>
    </contour>
  </outline>
</glyph>
<glyph name="guilsinglleft" format="2">
  <advance width="283"/>
  <unicode hex="2039"/>
  <outline>
    <contour>
      <point x="220" y="70" type="line"/>
      <point x="229" y="79" type="line"/>
      <point x="135" y="270" type="line"/>
      <point x="229" y="460" type="line"/>
      <point x="220" y="470" type="line"/>
      <point x="47" y="279" type="line"/>
      <point x="47" y="261" type="line"/>
    </contour>
  </outline>
</glyph>
<glyph name="guilsinglright" format="2">
  <advance width="283"/>
  <unicode hex="203A"/>
  <outline>
    <contour>
      <point x="63" y="70" type="line"/>
      <point x="236" y="261" type="line"/>
      <point x="236" y="279" type="line"/>
      <point x="63" y="470" type="line"/>
      <point x="54" y="460" type="line"/>
      <point x="148" y="270" type="line"/>
      <point x="54" y="79" type="line"/>
    </contour>
  </outline>
</glyph>
<glyph name="hryvnia" format="2">
  <advance width="683"/>
  <unicode hex="20B4"/>
  <outline>
    <contour>
      <point x="311" y="-20" type="curve" smooth="yes"/>
      <point x="374" y="-20"/>
      <point x="438" y="0"/>
      <point x="494" y="33" type="curve"/>
      <point x="579" y="-10" type="line"/>
      <point x="601" y="-10" type="line"/>
      <point x="601" y="247" type="line"/>
      <point x="579" y="247" type="line"/>
      <point x="493" y="61" type="line"/>
      <point x="437" y="21"/>
      <point x="374" y="2"/>
      <point x="303" y="2" type="curve" smooth="yes"/>
      <point x="229" y="2"/>
      <point x="169" y="63"/>
      <point x="169" y="159" type="curve" smooth="yes"/>
      <point x="169" y="330"/>
      <point x="303" y="361"/>
      <point x="303" y="361" type="curve"/>
      <point x="219" y="361" type="line"/>
      <point x="219" y="361"/>
      <point x="59" y="323"/>
      <point x="59" y="167" type="curve" smooth="yes"/>
      <point x="59" y="43"/>
      <point x="160" y="-20"/>
    </contour>
    <contour>
      <point x="47" y="355" type="line"/>
      <point x="613" y="355" type="line"/>
      <point x="613" y="380" type="line"/>
      <point x="47" y="380" type="line"/>
    </contour>
    <contour>
      <point x="47" y="455" type="line"/>
      <point x="613" y="455" type="line"/>
      <point x="613" y="480" type="line"/>
      <point x="47" y="480" type="line"/>
    </contour>
    <contour>
      <point x="349" y="472" type="curve"/>
      <point x="439" y="472" type="line"/>
      <point x="439" y="472"/>
      <point x="598" y="506"/>
      <point x="598" y="655" type="curve" smooth="yes"/>
      <point x="598" y="765"/>
      <point x="513" y="820"/>
      <point x="364" y="820" type="curve" smooth="yes"/>
      <point x="307" y="820"/>
      <point x="252" y="808"/>
      <point x="201" y="789" type="curve"/>
      <point x="128" y="820" type="line"/>
      <point x="106" y="820" type="line"/>
      <point x="106" y="616" type="line"/>
      <point x="128" y="616" type="line"/>
      <point x="200" y="762" type="line"/>
      <point x="246" y="783"/>
      <point x="303" y="798"/>
      <point x="363" y="798" type="curve" smooth="yes"/>
      <point x="440" y="798"/>
      <point x="482" y="750"/>
      <point x="481" y="656" type="curve" smooth="yes"/>
      <point x="482" y="504"/>
      <point x="349" y="472"/>
    </contour>
  </outline>
</glyph>
<glyph name="tenge" format="2">
  <advance width="700"/>
  <unicode hex="20B8"/>
  <outline>
    <contour>
      <point x="203" y="0" type="line"/>
      <point x="497" y="0" type="line"/>
      <point x="497" y="21" type="line"/>
      <point x="405" y="36" type="line"/>
      <point x="405" y="665" type="line"/>
      <point x="571" y="665" type="line"/>
      <point x="646" y="467" type="line"/>
      <point x="676" y="467" type="line"/>
      <point x="676" y="690" type="line"/>
      <point x="25" y="690" type="line"/>
      <point x="25" y="467" type="line"/>
      <point x="54" y="467" type="line"/>
      <point x="130" y="665" type="line"/>
      <point x="295" y="665" type="line"/>
      <point x="295" y="36" type="line"/>
      <point x="203" y="21" type="line"/>
    </contour>
    <contour>
      <point x="25" y="775" type="line"/>
      <point x="676" y="775" type="line"/>
      <point x="676" y="800" type="line"/>
      <point x="25" y="800" type="line"/>
    </contour>
  </outline>
</glyph>
<glyph name="minus" format="2">
  <advance width="602"/>
  <unicode hex="2212"/>
  <outline>
    <contour>
      <point x="76" y="338" type="line"/>
      <point x="526" y="338" type="line"/>
      <point x="526" y="376" type="line"/>
      <point x="76" y="376" type="line"/>
    </contour>
  </outline>
</glyph>
<glyph name="acutecomb.case" format="2">
  <anchor x="116" y="760" name="_top"/>
  <anchor x="131" y="953" name="top"/>
  <outline>
    <contour>
      <point x="35" y="810" type="line"/>
      <point x="202" y="861" type="line" smooth="yes"/>
      <point x="221" y="867"/>
      <point x="236" y="885"/>
      <point x="236" y="906" type="curve" smooth="yes"/>
      <point x="236" y="930"/>
      <point x="216" y="953"/>
      <point x="189" y="953" type="curve" smooth="yes"/>
      <point x="178" y="953"/>
      <point x="166" y="949"/>
      <point x="157" y="941" type="curve" smooth="yes"/>
      <point x="25" y="827" type="line"/>
    </contour>
  </outline>
</glyph>
<glyph name="brevecomb-cy" format="2">
  <anchor x="281" y="518" name="_top"/>
  <outline>
    <contour>
      <point x="282" y="582" type="curve" smooth="yes"/>
      <point x="374" y="582"/>
      <point x="458" y="613"/>
      <point x="458" y="689" type="curve" smooth="yes"/>
      <point x="458" y="722"/>
      <point x="432" y="750"/>
      <point x="399" y="750" type="curve" smooth="yes"/>
      <point x="365" y="750"/>
      <point x="336" y="722"/>
      <point x="336" y="689" type="curve"/>
      <point x="357" y="678"/>
      <point x="367" y="664"/>
      <point x="367" y="650" type="curve" smooth="yes"/>
      <point x="367" y="626"/>
      <point x="337" y="603"/>
      <point x="282" y="603" type="curve" smooth="yes"/>
      <point x="225" y="603"/>
      <point x="196" y="625"/>
      <point x="196" y="649" type="curve" smooth="yes"/>
      <point x="196" y="663"/>
      <point x="207" y="678"/>
      <point x="228" y="689" type="curve"/>
      <point x="228" y="722"/>
      <point x="198" y="750"/>
      <point x="165" y="750" type="curve" smooth="yes"/>
      <point x="131" y="750"/>
      <point x="105" y="722"/>
      <point x="105" y="689" type="curve" smooth="yes"/>
      <point x="105" y="613"/>
      <point x="189" y="582"/>
    </contour>
  </outline>
</glyph>
<glyph name="caroncomb.case" format="2">
  <outline>
    <contour>
      <point x="143" y="822" type="line"/>
      <point x="202" y="822" type="line"/>
      <point x="330" y="943" type="line"/>
      <point x="320" y="959" type="line"/>
      <point x="172" y="890" type="line"/>
      <point x="25" y="959" type="line"/>
      <point x="16" y="943" type="line"/>
    </contour>
  </outline>
</glyph>
<glyph name="dieresiscomb.case" format="2">
  <anchor x="175" y="775" name="_top"/>
  <outline>
    <contour>
      <point x="85" y="833" type="curve" smooth="yes"/>
      <point x="118" y="833"/>
      <point x="144" y="859"/>
      <point x="144" y="892" type="curve" smooth="yes"/>
      <point x="144" y="925"/>
      <point x="118" y="951"/>
      <point x="85" y="951" type="curve" smooth="yes"/>
      <point x="52" y="951"/>
      <point x="25" y="925"/>
      <point x="25" y="892" type="curve" smooth="yes"/>
      <point x="25" y="859"/>
      <point x="52" y="833"/>
    </contour>
    <contour>
      <point x="271" y="833" type="curve" smooth="yes"/>
      <point x="304" y="833"/>
      <point x="329" y="859"/>
      <point x="329" y="892" type="curve" smooth="yes"/>
      <point x="329" y="925"/>
      <point x="304" y="951"/>
      <point x="271" y="951" type="curve" smooth="yes"/>
      <point x="237" y="951"/>
      <point x="211" y="925"/>
      <point x="211" y="892" type="curve" smooth="yes"/>
      <point x="211" y="859"/>
      <point x="237" y="833"/>
    </contour>
  </outline>
</glyph>
<glyph name="gravecomb.case" format="2">
  <anchor x="143" y="760" name="_top"/>
  <anchor x="131" y="953" name="top"/>
  <outline>
    <contour>
      <point x="227" y="810" type="line"/>
      <point x="236" y="827" type="line"/>
      <point x="105" y="941" type="line" smooth="yes"/>
      <point x="96" y="949"/>
      <point x="84" y="953"/>
      <point x="72" y="953" type="curve" smooth="yes"/>
      <point x="46" y="953"/>
      <point x="25" y="930"/>
      <point x="25" y="906" type="curve" smooth="yes"/>
      <point x="25" y="885"/>
      <point x="41" y="867"/>
      <point x="60" y="861" type="curve"/>
    </contour>
  </outline>
</glyph>
<glyph name="hungarumlautcomb.case" format="2">
  <anchor x="116" y="760" name="_top"/>
  <anchor x="131" y="953" name="top"/>
  <outline>
    <contour>
      <point x="195" y="804" type="line"/>
      <point x="359" y="886" type="line" smooth="yes"/>
      <point x="369" y="890"/>
      <point x="378" y="899"/>
      <point x="381" y="910" type="curve" smooth="yes"/>
      <point x="388" y="931"/>
      <point x="375" y="954"/>
      <point x="355" y="960" type="curve" smooth="yes"/>
      <point x="339" y="965"/>
      <point x="323" y="960"/>
      <point x="312" y="948" type="curve" smooth="yes"/>
      <point x="186" y="818" type="line"/>
    </contour>
    <contour>
      <point x="35" y="804" type="line"/>
      <point x="199" y="886" type="line" smooth="yes"/>
      <point x="209" y="890"/>
      <point x="218" y="899"/>
      <point x="221" y="910" type="curve" smooth="yes"/>
      <point x="228" y="931"/>
      <point x="215" y="954"/>
      <point x="195" y="960" type="curve" smooth="yes"/>
      <point x="179" y="965"/>
      <point x="163" y="960"/>
      <point x="152" y="948" type="curve" smooth="yes"/>
      <point x="26" y="818" type="line"/>
    </contour>
  </outline>
</glyph>
<glyph name="verticalbar-cy" format="2">
  <advance width="193"/>
  <anchor x="98" y="262" name="_center"/>
  <outline>
    <contour>
      <point x="80" y="128" type="line"/>
      <point x="113" y="128" type="line"/>
      <point x="113" y="398" type="line"/>
      <point x="80" y="398" type="line"/>
    </contour>
  </outline>
</glyph>
